<svg width="1558" height="1558" viewBox="0 0 1558 1558" fill="none" xmlns="http://www.w3.org/2000/svg">
<g clip-path="url(#clip0_116_2)">
<path d="M834.999 164C838.176 166.627 839.263 169.632 840.749 173.422C841.004 174.066 841.258 174.709 841.521 175.372C842.356 177.495 843.178 179.622 843.999 181.75C844.427 182.85 844.427 182.85 844.864 183.972C860.514 224.204 873.871 265.126 880 308C880.118 308.785 880.237 309.569 880.359 310.377C890.482 379.359 869.253 445.015 828.437 500.312C806.037 529.473 806.037 529.473 793.658 541.34C792.073 542.927 790.644 544.568 789.203 546.285C783.936 552.341 778.202 557.947 772.521 563.609C770.567 565.558 768.618 567.512 766.669 569.467C755.352 580.789 755.352 580.789 749.579 585.635C747.796 587.176 746.15 588.817 744.499 590.5C741.553 593.492 738.47 596.253 735.289 598.992C733.064 600.943 730.888 602.941 728.719 604.954C724.436 608.926 720.119 612.777 715.562 616.438C711.377 619.803 707.417 623.332 703.499 627C698.795 631.4 693.969 635.554 688.945 639.59C685.4 642.49 681.95 645.489 678.499 648.5C673.344 652.995 668.124 657.386 662.808 661.691C658.885 664.916 655.045 668.236 651.199 671.552C647.594 674.655 643.947 677.695 640.249 680.688C635.812 684.291 631.546 688.046 627.32 691.895C625.298 693.729 623.253 695.528 621.187 697.312C612.031 705.322 603.24 713.664 594.624 722.25C593.501 723.366 593.501 723.366 592.355 724.505C588.249 728.623 584.314 732.834 580.519 737.24C578.643 739.413 576.697 741.517 574.749 743.625C569.709 749.219 565.089 755.098 560.497 761.061C558.951 763.062 557.392 765.053 555.832 767.043C544.451 781.636 534.191 796.938 524.999 813C524.319 814.182 524.319 814.182 523.625 815.388C485.552 881.997 471.094 959.427 491.085 1034.23C501.038 1069.64 517.833 1102.45 540.999 1131C541.461 1131.58 541.922 1132.15 542.397 1132.75C555.648 1149.23 570.906 1164.53 587.999 1177C588.941 1177.74 589.882 1178.47 590.851 1179.23C645.618 1221.85 717.244 1241.37 786.05 1234.18C790.726 1233.59 795.36 1232.82 799.999 1232C800.92 1231.85 801.84 1231.7 802.789 1231.54C837.668 1225.76 872.89 1212.17 902 1192C902.587 1191.6 903.174 1191.2 903.778 1190.78C915.678 1182.61 927.161 1173.81 937.785 1164.03C939.758 1162.22 941.771 1160.48 943.812 1158.75C953.462 1150.31 962.07 1141.06 970 1131C970.929 1129.88 971.862 1128.76 972.796 1127.65C1011.1 1081.59 1029.48 1022.21 1029.37 962.875C1029.37 961.297 1029.37 961.297 1029.37 959.688C1029.34 941.811 1028.24 924.606 1025 907C1024.81 905.936 1024.61 904.872 1024.42 903.775C1021.15 886.273 1016.21 869.813 1008.32 853.844C1007 851 1007 851 1007 849C991.16 851.475 991.16 851.475 975 854C976.464 857.073 977.928 860.146 979.437 863.312C1006.53 922.131 1009.19 989.44 987.121 1050.32C977.784 1074.94 964.875 1097.79 948 1118C947.525 1118.58 947.051 1119.15 946.563 1119.74C936.128 1132.39 924.959 1143.92 912 1154C911.04 1154.78 910.081 1155.55 909.093 1156.35C887.821 1173.27 863.699 1186.25 837.999 1195C837.192 1195.28 836.385 1195.55 835.553 1195.84C772.435 1217.08 703.84 1210.22 644.601 1180.9C631.922 1174.45 620.143 1166.83 608.999 1158C608.164 1157.36 607.329 1156.71 606.468 1156.05C591.57 1144.43 577.519 1130.99 565.999 1116C565.578 1115.46 565.157 1114.91 564.724 1114.35C537.256 1078.61 519.573 1035.94 514.999 991C514.889 990.024 514.778 989.048 514.664 988.043C508.64 925.935 528.004 862.53 567.304 814.219C571.671 808.957 576.26 803.926 580.999 799C581.599 798.373 582.199 797.746 582.817 797.1C591.655 787.908 600.708 779.531 610.999 772C611.579 771.57 612.159 771.14 612.757 770.697C622.958 763.146 622.958 763.146 627.824 760.414C637.455 754.914 644.658 747.898 652.312 739.938C654.72 737.463 657.135 734.995 659.55 732.527C660.407 731.648 660.407 731.648 661.282 730.752C664.821 727.14 668.443 723.702 672.306 720.435C675.066 718.096 677.675 715.599 680.312 713.125C685.16 708.61 690.153 704.36 695.32 700.211C698.132 697.891 700.817 695.469 703.499 693C707.969 688.886 712.59 685.029 717.316 681.215C719.947 679.044 722.479 676.798 724.999 674.5C729.224 670.654 733.589 667.033 738.027 663.438C743.154 659.233 748.161 654.89 753.184 650.562C755.002 648.997 756.826 647.439 758.652 645.883C764.767 640.666 770.828 635.406 776.781 630.004C778.793 628.187 780.826 626.401 782.874 624.625C787.688 620.43 792.378 616.102 797.069 611.771C798.56 610.403 800.059 609.044 801.561 607.688C809.075 600.875 816.324 593.831 823.483 586.647C825.324 584.8 827.17 582.96 829.017 581.119C834.892 575.247 840.631 569.344 845.999 563C846.996 561.878 847.996 560.758 848.999 559.641C896.744 505.915 927.642 440.016 924 367C923.32 357.304 922.206 347.643 921 338H923C934.945 361.309 946.454 384.595 956 409C956.39 409.99 956.781 410.98 957.184 412C966.143 434.913 972.739 458.776 977 483C977.163 483.899 977.327 484.798 977.496 485.725C982.434 513.904 982.319 545.075 976 573C975.796 573.901 975.592 574.802 975.382 575.73C967.46 609.188 950.475 638.357 928 664C927.296 664.816 926.592 665.632 925.867 666.473C916.312 677.353 906.082 687.929 894.679 696.879C892.235 698.814 889.877 700.824 887.527 702.871C879.109 710.17 870.106 716.594 861 723C860.089 723.641 859.179 724.281 858.241 724.941C852.504 728.975 846.756 732.994 840.999 737C846.289 739.421 851.581 741.832 856.921 744.141C865.761 747.99 874.233 751.934 882.243 757.345C884.688 758.937 886.49 759.983 889.441 760.082C893.241 758.475 896.264 756.096 899.5 753.562C900.56 752.748 900.56 752.748 901.642 751.918C903.086 750.808 904.526 749.695 905.964 748.578C907.759 747.186 909.563 745.808 911.375 744.438C966.556 702.5 1010.42 656.723 1022.31 585.938C1024.51 568.041 1022.52 549.871 1021 532C1023.85 534.498 1025.29 537.214 1026.98 540.588C1027.56 541.738 1028.14 542.889 1028.73 544.075C1029.36 545.34 1029.99 546.605 1030.62 547.871C1031.28 549.19 1031.94 550.509 1032.6 551.827C1033.99 554.609 1035.37 557.392 1036.76 560.177C1038.49 563.657 1040.22 567.133 1041.96 570.607C1049.96 586.571 1057.71 602.62 1065.16 618.848C1067.95 624.941 1070.87 630.975 1073.81 637C1080.6 651.014 1086.86 665.258 1093.13 679.504C1095.12 684.024 1097.13 688.535 1099.16 693.039C1120.98 741.542 1141.15 791.224 1155.5 842.5C1155.8 843.577 1156.1 844.655 1156.42 845.765C1160.89 862.338 1163.71 879.271 1166.12 896.25C1166.32 897.6 1166.32 897.6 1166.51 898.978C1168.92 915.968 1170.45 932.846 1171 950C1171.05 951.464 1171.05 951.464 1171.1 952.958C1172.95 1017.18 1158.64 1081.73 1132 1140C1131.63 1140.83 1131.26 1141.65 1130.88 1142.5C1119.8 1167.12 1105.55 1189.71 1089 1211C1088.37 1211.81 1087.74 1212.62 1087.09 1213.46C1071.47 1233.28 1054.28 1252.66 1035 1269C1033.99 1269.89 1032.97 1270.78 1031.96 1271.67C970.208 1325.73 891.885 1359.46 810.624 1369.31C809.619 1369.43 809.619 1369.43 808.593 1369.56C722.95 1379.79 637.859 1362.08 504.999 1285C501.281 1282.06 497.624 1279.06 493.999 1276C493.435 1275.53 492.87 1275.05 492.288 1274.56C480.009 1264.23 480.009 1264.23 474.542 1258.54C472.917 1256.92 471.204 1255.47 469.437 1254C462.755 1248.22 456.921 1241.54 450.999 1235C450.451 1234.4 449.902 1233.79 449.337 1233.17C428.651 1210.26 411.104 1184.4 396.293 1157.36C395.106 1155.19 393.897 1153.05 392.683 1150.9C381.983 1131.68 373.719 1110.92 366.999 1090C366.713 1089.12 366.426 1088.24 366.13 1087.34C359.481 1066.84 354.637 1046.08 351.249 1024.81C351.051 1023.58 350.852 1022.35 350.647 1021.08C347.661 1001.45 346.616 981.842 346.687 962C346.689 960.938 346.691 959.875 346.693 958.781C346.926 877.472 371.247 796.776 417.999 730C418.401 729.421 418.802 728.843 419.216 728.247C435.263 705.158 454.167 679.37 476.499 662.062C480.829 658.491 484.255 654.048 487.886 649.785C492.934 644.006 498.358 638.794 503.991 633.601C511.956 626.207 519.58 618.472 527.218 610.744C532.123 605.793 537.054 600.945 542.359 596.418C544.519 594.551 546.512 592.548 548.499 590.5C551.788 587.172 555.163 584.047 558.714 581.004C561.064 578.943 563.349 576.826 565.633 574.693C570.994 569.686 576.463 564.937 582.187 560.344C585.398 557.668 588.45 554.856 591.499 552C596.206 547.597 601.036 543.442 606.062 539.402C609.559 536.542 612.969 533.592 616.374 530.625C622.674 525.14 629.023 519.72 635.411 514.338C644.982 506.274 654.512 498.163 663.999 490C664.621 489.466 665.243 488.932 665.884 488.381C672.999 482.267 680.051 476.104 686.94 469.735C689.529 467.342 692.14 464.987 694.812 462.688C706.181 452.805 716.934 442.231 727.564 431.566C729.523 429.601 731.488 427.642 733.453 425.684C739.514 419.626 745.487 413.568 750.999 407C751.948 405.916 752.898 404.834 753.851 403.754C761.652 394.811 768.93 385.53 775.999 376C776.499 375.332 776.999 374.663 777.515 373.975C809.823 330.556 829.578 279.762 834.999 226C835.112 224.889 835.224 223.778 835.339 222.633C836.95 203.174 836.242 183.46 834.999 164Z" fill="#0D9B5D"/>
<path d="M921 338H923C934.945 361.309 946.454 384.595 956 409C956.586 410.485 956.586 410.485 957.184 412C966.144 434.913 972.74 458.776 977 483C977.246 484.349 977.246 484.349 977.496 485.725C982.434 513.904 982.319 545.075 976 573C975.796 573.901 975.593 574.802 975.383 575.73C967.46 609.188 950.475 638.357 928 664C927.296 664.816 926.592 665.632 925.867 666.473C916.313 677.353 906.082 687.929 894.68 696.879C892.236 698.814 889.878 700.824 887.528 702.871C879.109 710.17 870.107 716.594 861 723C860.09 723.641 859.18 724.281 858.242 724.941C852.504 728.975 846.757 732.994 841 737C846.266 739.41 851.533 741.812 856.852 744.105C868.085 748.984 878.595 754.544 889 761C887.612 764.314 886.191 765.87 883.211 767.848C882.442 768.365 881.673 768.882 880.881 769.415C880.054 769.959 879.227 770.502 878.375 771.062C876.642 772.225 874.909 773.388 873.176 774.551C872.305 775.13 871.435 775.71 870.538 776.307C836.638 798.922 805.34 824.16 785.029 860.176C784.356 861.369 783.675 862.558 782.986 863.742C764.261 895.946 755.726 934.303 752 971C752.75 970.31 753.501 969.621 754.274 968.91C756.982 966.422 759.696 963.939 762.41 961.458C763.788 960.194 765.16 958.924 766.531 957.652C772.761 951.932 779.326 946.71 786.014 941.545C788.11 939.915 790.189 938.264 792.266 936.609C841.626 897.443 899.069 871.14 960 856C960.834 855.791 961.668 855.582 962.526 855.367C966.777 854.353 970.595 853.774 975 854C1004.84 915.249 1010.31 983.037 988.062 1047.73C978.788 1073.32 965.442 1097.11 948 1118C947.526 1118.58 947.052 1119.15 946.564 1119.74C936.128 1132.39 924.96 1143.92 912 1154C910.562 1155.16 910.562 1155.16 909.094 1156.35C887.821 1173.27 863.699 1186.25 838 1195C837.193 1195.28 836.386 1195.55 835.554 1195.84C772.436 1217.08 703.841 1210.22 644.602 1180.9C631.922 1174.45 620.144 1166.83 609 1158C608.165 1157.36 607.329 1156.71 606.469 1156.05C591.571 1144.43 577.519 1130.99 566 1116C565.579 1115.46 565.158 1114.91 564.724 1114.35C537.257 1078.61 519.574 1035.94 515 991C514.889 990.024 514.778 989.048 514.664 988.043C508.641 925.935 528.005 862.53 567.305 814.219C571.672 808.957 576.261 803.926 581 799C581.9 798.06 581.9 798.06 582.817 797.1C591.656 787.908 600.709 779.531 611 772C611.87 771.355 611.87 771.355 612.757 770.697C622.959 763.146 622.959 763.146 627.825 760.414C637.455 754.914 644.658 747.898 652.313 739.938C654.721 737.463 657.135 734.995 659.551 732.527C660.122 731.941 660.694 731.355 661.283 730.752C664.821 727.14 668.444 723.702 672.307 720.435C675.066 718.096 677.675 715.599 680.313 713.125C685.16 708.61 690.153 704.36 695.32 700.211C698.133 697.891 700.818 695.469 703.5 693C707.97 688.886 712.591 685.029 717.317 681.215C719.947 679.044 722.48 676.798 725 674.5C729.224 670.654 733.59 667.033 738.027 663.438C743.155 659.233 748.162 654.89 753.184 650.562C755.003 648.997 756.827 647.439 758.652 645.883C764.768 640.666 770.828 635.406 776.781 630.004C778.793 628.187 780.827 626.401 782.875 624.625C787.689 620.43 792.379 616.102 797.07 611.771C798.561 610.403 800.059 609.044 801.561 607.688C809.076 600.875 816.324 593.831 823.484 586.647C825.325 584.8 827.171 582.96 829.018 581.119C834.893 575.247 840.631 569.344 846 563C846.997 561.878 847.997 560.758 849 559.641C896.745 505.915 927.643 440.016 924 367C923.321 357.304 922.206 347.643 921 338Z" fill="#F6941D"/>
<path d="M921 338H923C934.945 361.309 946.455 384.595 956 409C956.586 410.485 956.586 410.485 957.184 412C966.144 434.913 972.74 458.776 977 483C977.246 484.349 977.246 484.349 977.496 485.725C982.434 513.904 982.32 545.075 976 573C975.797 573.901 975.593 574.802 975.383 575.73C967.46 609.188 950.475 638.357 928 664C927.296 664.816 926.593 665.632 925.867 666.473C916.313 677.353 906.083 687.929 894.68 696.879C892.236 698.814 889.878 700.824 887.528 702.871C879.871 709.511 871.747 715.417 863.469 721.256C860.868 723.094 858.276 724.945 855.684 726.797C853.915 728.053 852.145 729.308 850.375 730.562C849.559 731.146 848.742 731.73 847.9 732.331C843.734 735.264 839.63 737.774 835.034 739.964C831.004 742.017 827.283 744.592 823.5 747.062C810.792 755.26 797.78 762.924 784.753 770.599C780.321 773.213 775.905 775.851 771.496 778.504C766.462 781.533 761.411 784.533 756.344 787.508C742.006 795.936 727.852 804.52 713.989 813.715C709.612 816.617 705.168 819.387 700.688 822.125C679.413 835.23 659.411 851.167 641 868C640.03 868.866 639.059 869.733 638.059 870.625C606.577 898.813 582.627 937.244 576.875 979.562C576.708 980.781 576.54 981.999 576.367 983.254C576.246 984.16 576.125 985.066 576 986C574 985 574 985 573.194 983.216C572.322 980.586 571.459 977.955 570.625 975.312C570.314 974.33 570.003 973.348 569.683 972.336C566.77 962.8 564.9 953.2 563.375 943.358C563.058 941.362 562.692 939.373 562.317 937.387C558.112 913.636 560.506 886.883 568 864C568.248 863.219 568.497 862.439 568.752 861.634C581.421 822.378 605.915 789.695 633.551 759.695C634.866 758.248 636.176 756.794 637.447 755.308C642.34 749.592 647.587 744.26 652.916 738.954C654.435 737.44 655.949 735.921 657.463 734.4C662.25 729.611 667.085 724.928 672.232 720.523C675.001 718.138 677.648 715.625 680.313 713.125C685.16 708.61 690.153 704.36 695.321 700.211C698.133 697.891 700.818 695.469 703.5 693C707.97 688.886 712.591 685.029 717.317 681.215C719.947 679.044 722.48 676.798 725 674.5C729.224 670.654 733.59 667.033 738.028 663.438C743.155 659.233 748.162 654.89 753.184 650.562C755.003 648.997 756.827 647.439 758.653 645.883C764.768 640.666 770.828 635.406 776.781 630.004C778.793 628.187 780.827 626.401 782.875 624.625C787.689 620.43 792.379 616.102 797.07 611.771C798.561 610.403 800.06 609.044 801.562 607.688C809.076 600.875 816.324 593.831 823.484 586.647C825.325 584.8 827.171 582.96 829.018 581.119C834.893 575.247 840.631 569.344 846 563C846.997 561.878 847.997 560.758 849 559.641C896.745 505.915 927.643 440.016 924 367C923.321 357.304 922.206 347.643 921 338Z" fill="#0D9B5D"/>
<path d="M749.999 0H751.999C771.797 41.9004 787.771 86.8777 793.999 133C794.175 134.27 794.351 135.541 794.532 136.85C796.017 148.295 796.34 159.642 796.315 171.175C796.312 174.167 796.336 177.158 796.361 180.15C796.421 198.201 794.723 216.096 790.249 233.625C789.991 234.659 789.733 235.692 789.467 236.758C776.668 286.746 748.761 329.67 714.281 367.483C712.899 369.008 711.525 370.541 710.168 372.088C703.452 379.714 696.281 386.87 689.088 394.042C686.934 396.19 684.786 398.344 682.638 400.498C681.247 401.888 679.856 403.278 678.464 404.668C677.834 405.3 677.203 405.933 676.554 406.585C672.779 410.34 668.893 413.913 664.856 417.385C661.656 420.169 658.586 423.091 655.499 426C651.021 430.201 646.531 434.367 641.874 438.371C639.612 440.337 637.403 442.357 635.187 444.375C631.746 447.485 628.236 450.465 624.624 453.375C620.07 457.057 615.762 460.929 611.478 464.916C608.267 467.887 604.973 470.699 601.562 473.438C596.145 477.797 591.08 482.475 585.999 487.215C583.041 489.973 580.016 492.646 576.957 495.293C574.614 497.336 572.307 499.417 569.999 501.5C567.063 504.151 564.113 506.783 561.124 509.375C556.192 513.673 551.393 518.116 546.582 522.547C545.007 523.994 543.426 525.433 541.843 526.871C536.768 531.488 531.785 536.158 526.977 541.055C525.163 542.84 523.301 544.497 521.363 546.145C516.508 550.365 511.973 554.879 507.437 559.438C506.626 560.245 505.814 561.053 504.978 561.885C500.664 566.206 496.499 570.594 492.541 575.244C490.931 577.078 489.241 578.792 487.499 580.5C482.711 585.213 478.379 590.305 474.124 595.5C473.423 596.325 472.722 597.15 471.999 598C471.669 598 471.339 598 470.999 598C471.011 596.714 471.023 595.427 471.035 594.102C471.097 583.801 470.951 573.541 470.499 563.25C467.649 495.128 478.976 431.581 521.999 377C522.428 376.453 522.856 375.906 523.297 375.343C533.596 362.322 545.637 350.374 558.202 339.55C560.678 337.415 563.088 335.208 565.499 333C568.619 330.155 571.747 327.328 574.937 324.562C578.836 321.174 582.638 317.683 586.439 314.186C589.587 311.29 592.752 308.416 595.937 305.562C600.785 301.209 605.582 296.802 610.361 292.372C612.699 290.204 615.04 288.04 617.384 285.879C626.104 277.813 634.605 269.551 642.991 261.139C645.023 259.102 647.06 257.07 649.097 255.039C650.419 253.716 651.741 252.394 653.062 251.07C653.657 250.477 654.252 249.885 654.865 249.274C658.562 245.556 662.066 241.713 665.491 237.743C667.365 235.578 669.306 233.479 671.249 231.375C676.345 225.726 681.002 219.771 685.644 213.75C686.917 212.106 688.205 210.475 689.499 208.848C717.224 173.615 736.62 133.135 744.999 89C745.151 88.2022 745.303 87.4045 745.459 86.5825C749.4 65.2041 750.304 43.7563 750.124 22.0625C750.114 19.903 750.105 17.7435 750.097 15.584C750.076 10.3892 750.041 5.19466 749.999 0Z" fill="#0D9C5E"/>
<path d="M695 1439C706.788 1438.93 718.576 1438.88 730.364 1438.84C735.839 1438.83 741.313 1438.81 746.788 1438.77C752.079 1438.74 757.37 1438.72 762.661 1438.72C764.672 1438.71 766.682 1438.7 768.693 1438.68C784.064 1438.56 797.918 1438.58 809.781 1449.66C816.906 1457.31 818.335 1466.73 818.211 1476.87C817.65 1485.19 814.868 1492.03 809 1498C802.782 1503.33 795.786 1505.76 788 1508C792.872 1516.1 798.347 1523.6 804.062 1531.11C807.212 1535.25 810.215 1539.49 813.184 1543.77C816.155 1547.42 819.235 1550.29 824 1551V1556C809.48 1556 794.96 1556 780 1556C780.33 1554.35 780.66 1552.7 781 1551C781.99 1550.67 782.98 1550.34 784 1550C782.182 1544.66 778.975 1540.33 775.683 1535.81C772.873 1531.91 770.508 1528.12 768.473 1523.76C765.74 1518.33 763.228 1513.37 758 1510C747.764 1507.37 737.512 1508.51 727 1509C727.495 1529.3 727.495 1529.3 728 1550C729.65 1550.33 731.3 1550.66 733 1551V1556C720.46 1556 707.92 1556 695 1556C695 1554.35 695 1552.7 695 1551L699 1549C699 1514.68 699 1480.36 699 1445C697.68 1444.34 696.36 1443.68 695 1443C695 1441.68 695 1440.36 695 1439ZM727 1459V1488C734.26 1488.09 741.517 1488.17 748.777 1488.22C751.245 1488.24 753.712 1488.27 756.18 1488.3C759.734 1488.35 763.289 1488.37 766.844 1488.39C767.94 1488.41 769.036 1488.43 770.165 1488.45C777.697 1488.46 783.085 1487.41 788.938 1482.31C791.28 1477.21 791.433 1472.55 789.938 1467.19C787.346 1462.92 784.509 1460.63 779.627 1459.41C776.984 1459 774.515 1458.88 771.843 1458.89C770.842 1458.89 769.841 1458.89 768.81 1458.89C767.208 1458.89 767.208 1458.89 765.574 1458.9C763.92 1458.9 763.92 1458.9 762.233 1458.91C758.718 1458.91 755.203 1458.93 751.688 1458.94C749.301 1458.94 746.915 1458.95 744.529 1458.95C738.686 1458.96 732.843 1458.98 727 1459Z" fill="#231F20"/>
<path d="M17 1439C28.6576 1438.93 40.3152 1438.88 51.973 1438.85C57.3872 1438.83 62.8012 1438.81 68.2153 1438.77C73.4479 1438.74 78.6803 1438.72 83.9129 1438.72C85.9014 1438.71 87.8899 1438.7 89.8784 1438.68C105.309 1438.56 118.67 1438.78 130.746 1449.56C137.184 1456.25 139.223 1464.41 139.5 1473.5C139.199 1483.08 136.899 1491.17 130.188 1498.22C124.119 1503.17 116.598 1506.27 109 1508C113.068 1514.72 117.457 1521.04 122.297 1527.22C124.892 1530.54 127.368 1533.9 129.75 1537.38C136.212 1546.73 136.212 1546.73 146 1552V1556C131.48 1556 116.96 1556 102 1556C102 1554.35 102 1552.7 102 1551C102.99 1550.67 103.98 1550.34 105 1550C103.025 1543.88 98.9698 1538.84 95.2573 1533.67C92.3788 1529.63 89.7865 1525.78 87.7852 1521.23C85.5722 1516.56 83.6357 1512.6 79 1510C68.7513 1507.74 58.4518 1508.65 48 1509C48.495 1529.3 48.495 1529.3 49 1550L54 1551V1556C41.79 1556 29.58 1556 17 1556C17 1554.35 17 1552.7 17 1551L20 1549C20.4535 1547.08 20.4535 1547.08 20.381 1544.83C20.3894 1543.95 20.3979 1543.08 20.4066 1542.17C20.4005 1541.21 20.3944 1540.25 20.3882 1539.26C20.3934 1538.25 20.3987 1537.24 20.4041 1536.19C20.4174 1532.84 20.4086 1529.48 20.3984 1526.13C20.4005 1523.8 20.4034 1521.48 20.4071 1519.15C20.4116 1514.28 20.4051 1509.4 20.3911 1504.53C20.374 1498.26 20.3839 1492 20.4018 1485.74C20.4127 1480.94 20.4092 1476.14 20.4014 1471.34C20.3994 1469.03 20.4019 1466.72 20.4089 1464.41C20.4165 1461.19 20.4049 1457.97 20.3882 1454.74C20.3973 1453.3 20.3973 1453.3 20.4066 1451.83C20.3981 1450.95 20.3897 1450.08 20.381 1449.18C20.3798 1448.41 20.3787 1447.65 20.3775 1446.87C20.1446 1444.59 20.1446 1444.59 17 1443C17 1441.68 17 1440.36 17 1439ZM48 1459V1488C55.2598 1488.09 62.5175 1488.17 69.7773 1488.22C72.2449 1488.24 74.7123 1488.27 77.1797 1488.3C80.7345 1488.35 84.2887 1488.37 87.8438 1488.39C88.9399 1488.41 90.036 1488.43 91.1654 1488.45C98.4665 1488.46 104.151 1487.51 109.671 1482.47C112.117 1479.76 111.992 1477.14 112.188 1473.56C111.934 1468.75 111.241 1466.24 107.812 1462.81C101.045 1458.45 94.1837 1458.73 86.3789 1458.81C84.7291 1458.81 84.7291 1458.81 83.0459 1458.81C79.5513 1458.82 76.057 1458.85 72.5625 1458.88C70.1856 1458.89 67.8086 1458.89 65.4316 1458.9C59.6209 1458.92 53.8107 1458.96 48 1459Z" fill="#231F20"/>
<path d="M518 1459H556C555.67 1460.65 555.34 1462.3 555 1464C554.34 1464.33 553.68 1464.66 553 1465C554.457 1470.31 557.85 1472.96 561.812 1476.5C571.286 1485.16 580.315 1494.25 589.347 1503.37C590.617 1504.65 591.888 1505.93 593.16 1507.21C594.334 1508.39 595.505 1509.58 596.673 1510.76C599.022 1513.12 601.216 1515.14 604 1517C604.101 1509.79 604.171 1502.58 604.22 1495.38C604.24 1492.92 604.267 1490.47 604.302 1488.02C604.35 1484.49 604.373 1480.97 604.391 1477.45C604.411 1476.35 604.432 1475.25 604.453 1474.12C604.453 1473.09 604.454 1472.07 604.454 1471.02C604.467 1469.67 604.467 1469.67 604.481 1468.3C603.844 1465.26 602.441 1464.78 600 1463C600 1461.68 600 1460.36 600 1459H633C632.67 1460.65 632.34 1462.3 632 1464C631.01 1464.66 630.02 1465.32 629 1466C628.692 1468.67 628.58 1471.12 628.596 1473.8C628.586 1475.01 628.586 1475.01 628.575 1476.24C628.557 1478.91 628.561 1481.58 628.566 1484.25C628.562 1486.1 628.557 1487.95 628.551 1489.8C628.542 1493.68 628.544 1497.56 628.554 1501.45C628.565 1506.43 628.545 1511.41 628.516 1516.39C628.498 1520.22 628.498 1524.04 628.504 1527.86C628.504 1529.7 628.498 1531.54 628.485 1533.37C628.471 1535.94 628.481 1538.51 628.498 1541.07C628.489 1541.83 628.479 1542.6 628.469 1543.38C628.457 1545.74 628.457 1545.74 629 1549C630.95 1550.76 630.95 1550.76 633 1552V1556C621.12 1556 609.24 1556 597 1556C597 1554.68 597 1553.36 597 1552L601 1551C598.056 1546.25 594.732 1542.45 590.766 1538.54C590.169 1537.94 589.572 1537.34 588.957 1536.73C587.699 1535.47 586.438 1534.22 585.175 1532.97C583.264 1531.08 581.362 1529.18 579.461 1527.28C572.404 1520.19 572.404 1520.19 564.984 1513.5C558.698 1507.98 552.914 1501.91 547 1496V1550L551 1552V1556C540.11 1556 529.22 1556 518 1556L519 1551L522 1549C522.308 1546.33 522.42 1543.88 522.404 1541.2C522.411 1540.4 522.418 1539.59 522.425 1538.76C522.443 1536.09 522.439 1533.42 522.434 1530.75C522.438 1528.9 522.443 1527.05 522.449 1525.2C522.458 1521.32 522.456 1517.44 522.446 1513.55C522.435 1508.57 522.455 1503.59 522.484 1498.61C522.502 1494.78 522.502 1490.96 522.496 1487.14C522.496 1485.3 522.502 1483.46 522.515 1481.63C522.529 1479.06 522.519 1476.49 522.502 1473.93C522.511 1473.17 522.521 1472.4 522.531 1471.62C522.543 1469.26 522.543 1469.26 522 1466C520.05 1464.24 520.05 1464.24 518 1463C518 1461.68 518 1460.36 518 1459Z" fill="#231F20"/>
<path d="M1211 1459C1220.28 1458.95 1229.55 1458.92 1238.83 1458.9C1243.14 1458.89 1247.45 1458.87 1251.75 1458.85C1255.92 1458.83 1260.09 1458.82 1264.26 1458.81C1265.84 1458.81 1267.42 1458.8 1269 1458.79C1299.1 1458.59 1299.1 1458.59 1309.84 1467.53C1314.96 1472.84 1317.07 1479.77 1317.31 1487.06C1316.65 1495.36 1315.4 1502.17 1309 1508C1303.31 1511.52 1297.36 1513.97 1291 1516C1295.05 1521.52 1299.11 1527.03 1303.19 1532.54C1304.77 1534.68 1306.33 1536.85 1307.88 1539.02C1312.27 1545.09 1315.78 1549.46 1323 1552V1556C1309.14 1556 1295.28 1556 1281 1556C1281 1554.68 1281 1553.36 1281 1552C1281.99 1551.34 1282.98 1550.68 1284 1550C1283.45 1546.26 1282.53 1543.91 1280.27 1540.89C1279.71 1540.14 1279.16 1539.38 1278.58 1538.6C1278 1537.83 1277.41 1537.05 1276.81 1536.25C1275.67 1534.71 1274.53 1533.18 1273.39 1531.64C1272.53 1530.5 1272.53 1530.5 1271.65 1529.35C1270 1527 1270 1527 1268.65 1524.45C1266.07 1519.63 1266.07 1519.63 1261.38 1517.2C1258.26 1516.89 1255.26 1516.85 1252.12 1516.94C1250.52 1516.93 1250.52 1516.93 1248.88 1516.92C1246.25 1516.9 1243.63 1516.93 1241 1517C1241.12 1521.22 1241.24 1525.44 1241.37 1529.65C1241.42 1531.09 1241.46 1532.52 1241.5 1533.96C1241.56 1536.02 1241.62 1538.08 1241.68 1540.14C1241.72 1541.39 1241.76 1542.63 1241.79 1543.91C1241.87 1547.04 1241.87 1547.04 1243 1550C1245 1551.21 1245 1551.21 1247 1552V1556C1235.12 1556 1223.24 1556 1211 1556C1211 1554.68 1211 1553.36 1211 1552L1212.94 1551.13C1215.15 1550.17 1215.15 1550.17 1216 1548C1216.1 1545.45 1216.14 1542.92 1216.13 1540.37C1216.13 1539.19 1216.13 1539.19 1216.13 1537.98C1216.14 1535.37 1216.14 1532.77 1216.13 1530.16C1216.13 1528.35 1216.13 1526.54 1216.14 1524.73C1216.14 1520.94 1216.14 1517.15 1216.13 1513.35C1216.12 1508.48 1216.13 1503.61 1216.13 1498.74C1216.14 1495.01 1216.14 1491.27 1216.13 1487.54C1216.13 1485.74 1216.13 1483.95 1216.14 1482.15C1216.14 1479.64 1216.13 1477.14 1216.13 1474.63C1216.13 1473.88 1216.13 1473.14 1216.14 1472.37C1216.19 1468.56 1216.19 1468.56 1215 1465C1212.98 1463.87 1212.98 1463.87 1211 1463C1211 1461.68 1211 1460.36 1211 1459ZM1241 1478V1498C1246.85 1498.07 1252.71 1498.13 1258.56 1498.16C1260.55 1498.18 1262.54 1498.2 1264.53 1498.23C1267.39 1498.26 1270.26 1498.28 1273.13 1498.29C1274.01 1498.31 1274.89 1498.32 1275.8 1498.34C1281.31 1498.34 1285.13 1497.61 1290 1495C1292.45 1491.91 1292.39 1488.85 1292 1485C1290.64 1481.68 1289.78 1480.35 1286.49 1478.87C1282 1477.75 1277.84 1477.75 1273.23 1477.8C1271.84 1477.81 1271.84 1477.81 1270.43 1477.81C1267.49 1477.82 1264.56 1477.85 1261.62 1477.88C1259.63 1477.89 1257.63 1477.89 1255.64 1477.9C1250.76 1477.92 1245.88 1477.96 1241 1478Z" fill="#231F20"/>
<path d="M962 1459H997C996.67 1460.65 996.34 1462.3 996 1464C994.68 1464.33 993.36 1464.66 992 1465V1496H1044C1043.94 1491.11 1043.88 1486.22 1043.81 1481.19C1043.81 1479.65 1043.8 1478.11 1043.79 1476.52C1043.76 1475.31 1043.74 1474.1 1043.71 1472.86C1043.69 1471.61 1043.68 1470.37 1043.66 1469.09C1043.33 1465.79 1043.33 1465.79 1040.46 1464.32C1039.65 1463.89 1038.83 1463.45 1038 1463C1038 1461.68 1038 1460.36 1038 1459H1074C1073.67 1460.65 1073.34 1462.3 1073 1464C1072.01 1464.33 1071.02 1464.66 1070 1465V1550C1071.98 1550.99 1071.98 1550.99 1074 1552V1556C1062.12 1556 1050.24 1556 1038 1556C1038 1554.68 1038 1553.36 1038 1552C1038.81 1551.58 1039.62 1551.16 1040.46 1550.73C1043.39 1549.17 1043.39 1549.17 1043.66 1545.54C1043.7 1544.12 1043.71 1542.69 1043.71 1541.27C1043.72 1540.6 1043.74 1539.94 1043.75 1539.25C1043.8 1536.77 1043.8 1534.29 1043.81 1531.81C1043.87 1526.26 1043.94 1520.72 1044 1515C1026.84 1515 1009.68 1515 992 1515V1550L997 1552V1556C985.45 1556 973.9 1556 962 1556C962 1554.68 962 1553.36 962 1552C962.649 1551.59 963.298 1551.17 963.967 1550.74C966.38 1549.06 966.38 1549.06 966.515 1545.52C966.542 1544.04 966.546 1542.57 966.533 1541.1C966.542 1540.3 966.551 1539.5 966.56 1538.67C966.582 1536.01 966.575 1533.35 966.566 1530.69C966.572 1528.84 966.578 1527 966.585 1525.15C966.596 1521.28 966.591 1517.4 966.576 1513.53C966.559 1508.57 966.583 1503.6 966.618 1498.64C966.64 1494.82 966.638 1491.01 966.63 1487.19C966.629 1485.36 966.636 1483.53 966.651 1481.7C966.668 1479.14 966.654 1476.59 966.631 1474.03C966.643 1473.27 966.654 1472.51 966.667 1471.73C966.595 1467.79 966.324 1466.32 963.461 1463.5C962.649 1463 961.837 1462.51 961 1462C961.33 1461.01 961.66 1460.02 962 1459Z" fill="#231F20"/>
<path d="M275 1459H311C310.67 1460.65 310.34 1462.3 310 1464C309.01 1464.33 308.02 1464.66 307 1465C305.861 1468.42 305.887 1471.03 305.902 1474.64C305.907 1476.58 305.907 1476.58 305.912 1478.57C305.92 1479.94 305.929 1481.32 305.938 1482.69C305.943 1484.07 305.947 1485.45 305.951 1486.84C305.963 1490.23 305.979 1493.61 306 1497C307.102 1496.14 308.203 1495.29 309.305 1494.43C310.025 1493.87 310.746 1493.31 311.489 1492.73C313.093 1491.48 314.696 1490.23 316.299 1488.98C320.565 1485.65 324.847 1482.35 329.168 1479.09C330.399 1478.16 330.399 1478.16 331.655 1477.2C333.238 1476 334.828 1474.81 336.423 1473.62C337.141 1473.07 337.858 1472.53 338.598 1471.96C339.232 1471.48 339.866 1471.01 340.52 1470.52C342.261 1468.73 342.615 1467.43 343 1465C341.68 1464.34 340.36 1463.68 339 1463C339 1461.68 339 1460.36 339 1459H384C383.67 1460.65 383.34 1462.3 383 1464C379.832 1465.49 379.832 1465.49 377.917 1466.19C374.705 1467.55 372.256 1469.89 369.688 1472.19C368.545 1473.18 367.402 1474.18 366.258 1475.17C365.425 1475.9 365.425 1475.9 364.575 1476.64C360.82 1479.88 356.896 1482.93 353 1486C351.791 1486.97 350.583 1487.93 349.375 1488.9C348.104 1489.91 346.834 1490.93 345.562 1491.94C344.959 1492.42 344.355 1492.91 343.733 1493.41C341.166 1495.44 339.133 1496.96 336 1498C341.099 1504.4 346.35 1510.54 351.92 1516.53C354.832 1519.67 357.58 1522.9 360.25 1526.25C364.199 1531.12 368.328 1535.81 372.562 1540.44C373.176 1541.12 373.789 1541.81 374.421 1542.52C378.575 1547 382.384 1549.57 388 1552V1556C373.48 1556 358.96 1556 344 1556C344 1554.68 344 1553.36 344 1552L348 1550C346.724 1547.25 345.355 1545.05 343.348 1542.79C342.824 1542.19 342.299 1541.59 341.76 1540.97C341.2 1540.34 340.639 1539.71 340.062 1539.06C338.887 1537.72 337.713 1536.39 336.539 1535.05C335.948 1534.37 335.356 1533.7 334.747 1533.01C331.65 1529.45 328.624 1525.83 325.604 1522.21C323.19 1519.34 320.699 1516.61 318 1514C313.134 1516.09 308.737 1518.35 306 1523C304.231 1531.27 304.311 1541.93 307 1550C309 1551.21 309 1551.21 311 1552V1556C299.12 1556 287.24 1556 275 1556C275 1554.68 275 1553.36 275 1552L276.938 1551.12C279.152 1550.17 279.152 1550.17 280 1548C280.098 1545.45 280.136 1542.92 280.129 1540.37C280.132 1539.19 280.132 1539.19 280.135 1537.98C280.139 1535.37 280.136 1532.77 280.133 1530.16C280.133 1528.35 280.134 1526.54 280.136 1524.73C280.137 1520.94 280.135 1517.15 280.13 1513.35C280.125 1508.48 280.128 1503.61 280.134 1498.74C280.138 1495.01 280.136 1491.27 280.134 1487.54C280.133 1485.74 280.134 1483.95 280.136 1482.15C280.139 1479.64 280.135 1477.14 280.129 1474.63C280.131 1473.88 280.133 1473.14 280.136 1472.37C280.185 1468.56 280.185 1468.56 279 1465C276.983 1463.87 276.983 1463.87 275 1463C275 1461.68 275 1460.36 275 1459Z" fill="#231F20"/>
<path d="M152 1459H188C187.67 1460.65 187.34 1462.3 187 1464C184.938 1465.31 184.938 1465.31 183 1466C182.924 1473.83 182.871 1481.66 182.835 1489.49C182.822 1492.15 182.8 1494.81 182.774 1497.47C182.737 1501.3 182.72 1505.14 182.707 1508.97C182.692 1510.15 182.676 1511.34 182.66 1512.56C182.659 1520.06 183.194 1526.01 187.625 1532.31C193.971 1536.82 200.474 1537.29 208.062 1537.38C209.196 1537.4 209.196 1537.4 210.352 1537.42C217.895 1537.35 224.454 1535.38 230 1530C234.33 1523.72 233.146 1514.26 233.133 1507.01C233.134 1505.3 233.134 1505.3 233.136 1503.56C233.136 1501.16 233.135 1498.76 233.13 1496.36C233.125 1492.68 233.13 1489 233.137 1485.32C233.136 1482.99 233.135 1480.66 233.133 1478.32C233.136 1476.67 233.136 1476.67 233.139 1474.98C233.136 1473.96 233.133 1472.94 233.129 1471.89C233.129 1470.99 233.128 1470.09 233.127 1469.17C233.14 1466.95 233.14 1466.95 232 1465C229.983 1463.87 229.983 1463.87 228 1463C228 1461.68 228 1460.36 228 1459H262C261.67 1460.65 261.34 1462.3 261 1464C260.01 1464.33 259.02 1464.66 258 1465C256.639 1467.72 256.868 1469.88 256.858 1472.93C256.851 1474.17 256.844 1475.42 256.837 1476.7C256.835 1477.37 256.833 1478.04 256.831 1478.73C256.824 1480.83 256.808 1482.93 256.79 1485.03C256.738 1491 256.69 1496.97 256.674 1502.94C256.664 1506.59 256.634 1510.24 256.593 1513.89C256.581 1515.28 256.575 1516.66 256.578 1518.05C256.59 1528.21 255.434 1536.65 249.875 1545.31C238.242 1556.19 224.975 1557.54 209.759 1557.5C207.268 1557.5 204.78 1557.54 202.289 1557.59C188.761 1557.69 175.186 1555.84 165 1546C157.834 1538.83 156.963 1528.35 156.886 1518.7C156.887 1516.2 156.892 1513.69 156.902 1511.19C156.904 1509.86 156.906 1508.52 156.907 1507.19C156.91 1503.69 156.92 1500.2 156.931 1496.71C156.942 1493.13 156.946 1489.56 156.951 1485.99C156.962 1478.99 156.979 1472 157 1465C154.525 1464.01 154.525 1464.01 152 1463C152 1461.68 152 1460.36 152 1459Z" fill="#231F20"/>
<path d="M394 1459H430C429.67 1460.65 429.34 1462.3 429 1464C428.01 1464.33 427.02 1464.66 426 1465C425.034 1467.9 424.868 1469.76 424.855 1472.77C424.848 1473.74 424.842 1474.71 424.835 1475.71C424.834 1476.75 424.833 1477.8 424.832 1478.88C424.829 1479.96 424.825 1481.04 424.822 1482.16C424.817 1484.45 424.815 1486.75 424.815 1489.04C424.813 1492.52 424.794 1496.01 424.775 1499.49C424.772 1501.73 424.77 1503.96 424.77 1506.19C424.762 1507.22 424.755 1508.26 424.748 1509.32C424.771 1516.7 425.03 1524.22 428.5 1530.88C436.789 1537.92 446.633 1537.82 456.99 1537.18C462.63 1536.67 466.474 1535.17 470.938 1531.75C475.966 1525.04 475.335 1517.21 475.371 1509.17C475.38 1507.95 475.389 1506.72 475.398 1505.46C475.413 1502.87 475.422 1500.29 475.426 1497.71C475.438 1493.75 475.487 1489.79 475.537 1485.83C475.547 1483.32 475.554 1480.81 475.559 1478.3C475.578 1477.11 475.598 1475.92 475.618 1474.7C475.612 1473.6 475.606 1472.5 475.599 1471.37C475.604 1470.4 475.61 1469.44 475.615 1468.44C475.234 1465.74 475.234 1465.74 472.463 1464.41C471.244 1463.71 471.244 1463.71 470 1463C470 1461.68 470 1460.36 470 1459H504C503.67 1460.65 503.34 1462.3 503 1464C502.01 1464.33 501.02 1464.66 500 1465C499.992 1465.68 499.984 1466.37 499.975 1467.07C499.897 1473.57 499.809 1480.07 499.712 1486.57C499.663 1489.91 499.618 1493.25 499.578 1496.59C499.532 1500.45 499.474 1504.31 499.414 1508.16C499.403 1509.34 499.391 1510.51 499.379 1511.72C498.933 1537.31 498.933 1537.31 490.434 1546.74C482.055 1554.57 470.81 1557.3 459.617 1557.34C458.452 1557.35 458.452 1557.35 457.263 1557.36C455.628 1557.37 453.993 1557.37 452.357 1557.37C449.902 1557.37 447.448 1557.41 444.992 1557.45C431.053 1557.55 417.677 1555.95 407 1546C399.455 1537.1 399.691 1526.63 399.621 1515.51C399.605 1514.11 399.588 1512.72 399.57 1511.32C399.524 1507.67 399.489 1504.02 399.457 1500.36C399.405 1494.5 399.34 1488.63 399.269 1482.77C399.246 1480.72 399.23 1478.67 399.214 1476.63C399.201 1475.39 399.187 1474.16 399.174 1472.88C399.164 1471.79 399.155 1470.7 399.145 1469.58C399.172 1467.01 399.172 1467.01 398 1465C395.983 1463.87 395.983 1463.87 394 1463C394 1461.68 394 1460.36 394 1459Z" fill="#231F20"/>
<path d="M1122 1459H1161C1160 1464 1160 1464 1158.31 1465.31C1157.88 1465.87 1157.45 1466.43 1157 1467C1158.08 1472.71 1159.94 1477.37 1162.71 1482.45C1163.08 1483.13 1163.44 1483.81 1163.81 1484.52C1164.99 1486.72 1166.18 1488.92 1167.38 1491.12C1168.2 1492.66 1169.02 1494.19 1169.84 1495.72C1172.21 1500.15 1174.61 1504.58 1177 1509C1177.61 1510.14 1178.23 1511.27 1178.86 1512.44C1181.33 1517.01 1183.81 1521.57 1186.32 1526.11C1188.17 1529.46 1189.97 1532.84 1191.74 1536.23C1192.19 1537.07 1192.63 1537.9 1193.09 1538.76C1193.92 1540.32 1194.73 1541.89 1195.53 1543.46C1197.98 1548.02 1199.96 1550.12 1205 1552V1556C1191.47 1556 1177.94 1556 1164 1556C1164 1554.68 1164 1553.36 1164 1552L1168 1550C1168.63 1544.11 1167.19 1540.92 1164.09 1535.92C1163 1534 1163 1534 1163 1532C1148.48 1532 1133.96 1532 1119 1532C1118.34 1533.65 1117.68 1535.3 1117 1537C1116.46 1538.13 1115.93 1539.27 1115.38 1540.44C1114.02 1543.95 1113.73 1546.28 1114 1550L1118 1552V1556C1105.79 1556 1093.58 1556 1081 1556C1081 1554.68 1081 1553.36 1081 1552C1082.37 1551.48 1082.37 1551.48 1083.76 1550.94C1087.71 1548.58 1089.02 1545.99 1090.82 1541.93C1091.5 1540.48 1092.19 1539.03 1092.87 1537.58C1093.22 1536.82 1093.57 1536.07 1093.93 1535.29C1095.68 1531.55 1097.55 1527.86 1099.4 1524.16C1100.16 1522.65 1100.91 1521.14 1101.66 1519.63C1102.04 1518.87 1102.41 1518.12 1102.8 1517.35C1103.56 1515.83 1104.31 1514.31 1105.07 1512.78C1109.6 1503.67 1114.21 1494.6 1119.03 1485.63C1124.17 1476.95 1124.17 1476.95 1125.77 1467.36C1125.16 1464.66 1125.16 1464.66 1122 1463C1122 1461.68 1122 1460.36 1122 1459ZM1140 1489C1138.14 1492.66 1136.29 1496.33 1134.45 1500C1133.82 1501.25 1133.19 1502.49 1132.55 1503.74C1131.65 1505.53 1130.75 1507.32 1129.84 1509.12C1129.03 1510.74 1129.03 1510.74 1128.19 1512.39C1126.86 1514.82 1126.86 1514.82 1127 1517H1154C1152.68 1513.04 1151.59 1509.94 1149.69 1506.36C1149.25 1505.54 1148.82 1504.71 1148.37 1503.87C1147.92 1503.02 1147.46 1502.18 1147 1501.31C1146.55 1500.46 1146.1 1499.6 1145.63 1498.72C1143.86 1495.38 1142.1 1492.15 1140 1489Z" fill="#231F20"/>
<path d="M872 1459H911C910.67 1460.65 910.34 1462.3 910 1464C909.34 1464.33 908.68 1464.66 908 1465C907.712 1470.23 908.299 1473.45 910.75 1478.06C911.057 1478.65 911.363 1479.23 911.679 1479.84C912.768 1481.9 913.881 1483.95 915 1486C915.434 1486.8 915.869 1487.6 916.316 1488.42C918.283 1492.04 920.255 1495.65 922.239 1499.26C925.971 1506.06 929.571 1512.92 933.125 1519.81C937.185 1527.68 941.439 1535.39 946.055 1542.95C949 1547.81 949 1547.81 949 1550C950.98 1550.66 952.96 1551.32 955 1552V1556C941.47 1556 927.94 1556 914 1556C914 1554.68 914 1553.36 914 1552L919 1551C918.576 1543.37 916.773 1540.55 913 1533C891.22 1532.5 891.22 1532.5 869 1532C868.34 1533.98 867.68 1535.96 867 1538C866.464 1539.18 865.928 1540.35 865.375 1541.56C864.101 1544.75 863.694 1546.64 864 1550L868 1552V1556C855.79 1556 843.58 1556 831 1556C831 1554.68 831 1553.36 831 1552C831.898 1551.67 832.796 1551.34 833.721 1550.99C838.049 1548.36 839.316 1545.57 841.465 1541.11C841.88 1540.28 842.295 1539.46 842.722 1538.61C843.65 1536.76 844.57 1534.91 845.485 1533.06C847.101 1529.8 848.752 1526.56 850.411 1523.32C853.201 1517.88 855.97 1512.42 858.721 1506.95C860.31 1503.79 861.905 1500.64 863.511 1497.49C865.096 1494.38 866.669 1491.26 868.233 1488.14C869.106 1486.41 869.99 1484.68 870.874 1482.96C873.75 1477.19 875.733 1472.47 876 1466C875.34 1465.59 874.68 1465.18 874 1464.75C873.34 1464.17 872.68 1463.6 872 1463C872 1461.68 872 1460.36 872 1459ZM890 1489C888.018 1493.1 886.04 1497.21 884.062 1501.31C883.499 1502.48 882.935 1503.65 882.354 1504.85C881.815 1505.97 881.277 1507.09 880.723 1508.24C880.225 1509.27 879.728 1510.3 879.215 1511.36C877.932 1514.02 877.932 1514.02 877 1517H905C903.804 1514.61 902.607 1512.21 901.375 1509.75C897.917 1502.83 894.458 1495.92 891 1489C890.67 1489 890.34 1489 890 1489Z" fill="#231F20"/>
<path d="M1458 1459H1497C1496.67 1460.65 1496.34 1462.3 1496 1464C1495.01 1464.66 1494.02 1465.32 1493 1466C1493.21 1474 1496.79 1479.89 1500.62 1486.75C1501.3 1487.98 1501.98 1489.21 1502.65 1490.45C1504.05 1493.01 1505.46 1495.57 1506.88 1498.13C1509.93 1503.68 1512.89 1509.26 1515.86 1514.85C1518.01 1518.86 1520.17 1522.86 1522.32 1526.87C1523.88 1529.78 1525.42 1532.7 1526.95 1535.62C1527.82 1537.25 1528.69 1538.87 1529.56 1540.5C1529.93 1541.22 1530.3 1541.94 1530.68 1542.67C1533.14 1547.21 1535.63 1549.14 1540 1552V1556C1526.8 1556 1513.6 1556 1500 1556C1500 1554.68 1500 1553.36 1500 1552L1504 1550C1504.48 1542.79 1504.48 1542.79 1498 1533C1476.22 1532.5 1476.22 1532.5 1454 1532C1453.67 1533.65 1453.34 1535.3 1453 1537C1451.99 1539.32 1450.88 1541.56 1449.74 1543.82C1448.88 1546.36 1448.98 1547.53 1450 1550C1451.98 1551.28 1451.98 1551.28 1454 1552V1556C1441.79 1556 1429.58 1556 1417 1556C1417 1554.68 1417 1553.36 1417 1552C1417.95 1551.77 1418.9 1551.55 1419.88 1551.31C1423.13 1550.36 1423.13 1550.36 1423.99 1547.84C1424.32 1546.9 1424.66 1545.97 1425 1545C1426.1 1542.73 1427.22 1540.47 1428.36 1538.21C1429.08 1536.78 1429.8 1535.35 1430.52 1533.92C1431.11 1532.74 1431.11 1532.74 1431.72 1531.54C1435.71 1523.63 1439.67 1515.7 1443.64 1507.78C1444.72 1505.62 1445.8 1503.46 1446.88 1501.31C1448.47 1498.14 1450.06 1494.98 1451.64 1491.82C1452.12 1490.86 1452.6 1489.91 1453.09 1488.93C1459.54 1477.54 1459.54 1477.54 1461 1465C1460.01 1464.34 1459.02 1463.68 1458 1463C1458 1461.68 1458 1460.36 1458 1459ZM1475 1490C1473.21 1493.56 1471.41 1497.12 1469.62 1500.69C1469.12 1501.69 1468.61 1502.7 1468.09 1503.74C1467.35 1505.2 1467.35 1505.2 1466.6 1506.7C1465.93 1508.04 1465.93 1508.04 1465.24 1509.41C1464.05 1511.89 1463.02 1514.45 1462 1517H1490C1486.93 1510.03 1486.93 1510.03 1483.64 1503.18C1483.25 1502.4 1482.85 1501.62 1482.45 1500.81C1482.05 1500.03 1481.66 1499.24 1481.25 1498.44C1480.84 1497.62 1480.43 1496.8 1480 1495.96C1479 1493.97 1478 1491.99 1477 1490C1476.34 1490 1475.68 1490 1475 1490Z" fill="#231F20"/>
<path d="M1376 1459H1411C1410.67 1460.65 1410.34 1462.3 1410 1464C1409.01 1464.66 1408.02 1465.32 1407 1466C1406.54 1468.76 1406.54 1468.76 1406.6 1472.05C1406.59 1473.32 1406.57 1474.6 1406.56 1475.91C1406.56 1477.3 1406.56 1478.7 1406.56 1480.1C1406.55 1481.53 1406.53 1482.96 1406.52 1484.4C1406.48 1488.18 1406.46 1491.96 1406.45 1495.74C1406.42 1501.77 1406.38 1507.8 1406.33 1513.83C1406.31 1515.93 1406.31 1518.02 1406.3 1520.12C1406.22 1530.26 1405.95 1540.01 1399 1548C1389.39 1556.11 1380.18 1557.53 1367.94 1557.44C1366.65 1557.43 1365.36 1557.43 1364.03 1557.43C1355.79 1557.31 1348.53 1556.57 1340.75 1553.88C1336.24 1552.44 1332.56 1552.96 1328 1554C1329.56 1544.3 1332.8 1535.25 1336 1526C1337.93 1526.36 1337.93 1526.36 1340 1527L1341.19 1529.31C1344.16 1533.72 1348.91 1534.99 1353.82 1536.59C1357.02 1537.19 1360.13 1537.21 1363.38 1537.25C1364.66 1537.28 1365.95 1537.3 1367.27 1537.33C1371.32 1536.97 1373.62 1536.24 1377 1534C1379.84 1530.17 1380.38 1527.42 1380.4 1522.7C1380.42 1521.45 1380.43 1520.19 1380.44 1518.91C1380.44 1517.55 1380.44 1516.19 1380.43 1514.84C1380.44 1513.44 1380.44 1512.04 1380.45 1510.64C1380.46 1507.72 1380.46 1504.79 1380.45 1501.87C1380.43 1498.12 1380.45 1494.38 1380.48 1490.63C1380.5 1487.75 1380.5 1484.86 1380.5 1481.98C1380.5 1480.6 1380.5 1479.21 1380.51 1477.83C1380.53 1475.9 1380.52 1473.97 1380.5 1472.04C1380.5 1470.95 1380.5 1469.85 1380.5 1468.72C1379.87 1465.3 1378.75 1464.92 1376 1463C1376 1461.68 1376 1460.36 1376 1459Z" fill="#231F20"/>
</g>
<defs>
<clipPath id="clip0_116_2">
<rect width="1557.59" height="1557.59" fill="white"/>
</clipPath>
</defs>
</svg>
