<?xml version="1.0" encoding="UTF-8"?>
<svg width="600" height="215" version="1.1" xmlns="http://www.w3.org/2000/svg">
 <defs>
  <linearGradient id="f" x2="1" gradientTransform="matrix(28.758,0,0,28.758,87.29,131.74)" gradientUnits="userSpaceOnUse">
   <stop stop-color="#3b3a3c" offset="0"/>
   <stop stop-color="#3b3a3c" offset=".050508"/>
   <stop stop-color="#4a4b4f" offset=".48"/>
   <stop stop-color="#4a4b4f" offset=".59627"/>
   <stop stop-color="#7a7d81" offset="1"/>
  </linearGradient>
  <linearGradient id="e" x2="1" gradientTransform="matrix(74.358,0,0,74.358,10,149.33)" gradientUnits="userSpaceOnUse">
   <stop stop-color="#fbc709" offset="0"/>
   <stop stop-color="#fbc709" offset=".26319"/>
   <stop stop-color="#de7a19" offset="1"/>
  </linearGradient>
  <linearGradient id="d" x2="1" gradientTransform="matrix(28.396,0,0,28.396,10,103.06)" gradientUnits="userSpaceOnUse">
   <stop stop-color="#7a7d81" offset="0"/>
   <stop stop-color="#4a4b4f" offset=".40373"/>
   <stop stop-color="#4a4b4f" offset=".52"/>
   <stop stop-color="#3b3a3c" offset=".94949"/>
   <stop stop-color="#3b3a3c" offset="1"/>
  </linearGradient>
  <linearGradient id="c" x2="1" gradientTransform="matrix(65.116,0,0,65.116,54.72,52.67)" gradientUnits="userSpaceOnUse">
   <stop stop-color="#fbc709" offset="0"/>
   <stop stop-color="#fbc709" offset=".26319"/>
   <stop stop-color="#de7a19" offset="1"/>
  </linearGradient>
  <linearGradient id="b" x2="1" gradientTransform="matrix(32.545,0,0,32.545,87.29,96.36)" gradientUnits="userSpaceOnUse">
   <stop stop-color="#3b3a3c" offset="0"/>
   <stop stop-color="#3b3a3c" offset=".050508"/>
   <stop stop-color="#4a4b4f" offset=".48"/>
   <stop stop-color="#4a4b4f" offset=".59627"/>
   <stop stop-color="#7a7d81" offset="1"/>
  </linearGradient>
  <linearGradient id="a" x2="1" gradientTransform="matrix(31.567,0,0,31.567,87.29,108.82)" gradientUnits="userSpaceOnUse">
   <stop stop-color="#fbc709" offset="0"/>
   <stop stop-color="#fbc709" offset=".26319"/>
   <stop stop-color="#de7a19" offset="1"/>
  </linearGradient>
  <linearGradient id="g" x2="1" gradientTransform="matrix(32.571,0,0,32.571,54.72,109.46)" gradientUnits="userSpaceOnUse">
   <stop stop-color="#fbc709" offset="0"/>
   <stop stop-color="#fbc709" offset=".26319"/>
   <stop stop-color="#de7a19" offset="1"/>
  </linearGradient>
 </defs>
 <path d="m448.14 54.22h32.275v37.454h30.294v-37.454h32.287v86.009c0 8.8176-5.4052 16.691-16.975 16.691h-15.312v-40.021h-30.294v40.021h-32.275zm-108.46 0h32.066v43.618s19.466-27.976 22.809-32.796c3.3486-4.8143 10.37-10.822 19.576-10.822h24.448l-37.628 51.347 37.362 51.353h-24.471c-9.0956 0-16.216-6.3843-19.669-11.309-3.4413-4.9244-22.426-32.02-22.426-32.02v43.329h-15.729c-9.6808 0-16.337-6.7377-16.337-17.734zm-61.807 44.967h6.309c4.9649 0 8.4468-0.8748 10.463-2.6418 2.0103-1.767 3.0068-4.0148 3.0068-6.7667 0-2.6708-0.86322-4.9302-2.6186-6.7899-1.7322-1.8539-4.9997-2.7866-9.814-2.7866h-7.346zm-31.997-44.968h43.566c18.597 0 25.821 5.2662 31.105 10.724 5.2604 5.4748 9.1014 14.188 9.1014 24.269 0 10.364-4.0785 19.535-10.625 25.311-6.1468 5.4342-15.909 9.5823-27.71 9.5823h-13.348v32.814h-14.489c-12.149 0-17.6-7.1896-17.6-19.912zm-65.928 76.683h12.114c4.0728 0 7.236-0.23174 8.916-1.5816 1.6801-1.3441 2.2478-3.5745 2.2478-5.8397 0-3.0242-1.3557-4.8201-2.9662-5.7355-1.8423-1.0138-4.0959-1.263-8.244-1.263h-12.068zm0-36.4h10.782c3.8642 0 6.5465-0.66044 8.0586-1.9871 1.5295-1.3325 2.271-3.2559 2.271-5.7702 0-2.329-0.74155-4.1481-2.271-5.4516-1.5121-1.3151-4.1365-1.9755-7.9022-1.9755h-10.938zm-32.014-40.281h54.823c9.1362 0 18.643 3.3544 23.527 8.244 4.9012 4.9128 7.2128 10.318 7.2128 17.554 0 6.0657-0.56776 18.585-16.888 24.373 6.813 1.7612 11.216 4.7853 14.431 9.0898 3.2037 4.3277 4.8143 9.2173 4.8143 15.746 0 5.3241-1.0196 9.507-3.308 13.754-2.2942 4.2466-5.8571 6.6972-9.8256 9.1709-2.4564 1.541-6.1468 2.6592-11.112 3.366-6.5929 0.92695-10.973 1.402-13.11 1.402h-34.604c-7.8442 0-15.961-4.5536-15.961-19.309z" fill="#1a304f"/>
 <path d="m87.3 153.81c13.25-7.6299 23.539-19.75 28.753-34.285l-28.753-9.8488z" fill="url(#f)"/>
 <path d="m10 125.11v5.3936c0 18.104 13.296 33.086 30.757 36.081 0 0 6.3264 0.65466 8.3656 4.9012 1.8481 3.8932-0.23159 7.0332-0.23159 7.0332-1.037 2.2942-1.6164 4.8317-1.6164 7.5256 0 10.237 8.3019 18.533 18.545 18.533 10.231 0 18.539-8.2961 18.539-18.533 0-10.249-8.3077-18.545-18.539-18.545-1.6164 0-3.1806 0.23159-4.6811 0.61408 0 0-7.2302 2.1957-10.851-0.95591-3.001-2.6012-3.1748-6.6045-3.1748-7.375v-42.124c0-8.9856-3.2848-17.206-8.7132-23.579-16.569 3.6557-25.972 16.332-28.399 31.029" fill="url(#e)"/>
 <path d="m10 125.11c2.4274-14.698 11.83-27.374 28.399-31.029-6.8246-7.9775-17.004-13.07-28.399-13.07z" fill="url(#d)"/>
 <path d="m54.72 75.11v19.813l32.576-11.135 32.542 11.135v-84.508c-35.965 0-65.118 28.967-65.118 64.695" fill="url(#c)"/>
 <path d="m54.72 109.26 32.57-11.146v-14.321l-32.57 11.135v2.8562z" fill="#525257"/>
 <path d="m87.3 98.11 31.562 10.81c0.61991-3.6208 0.97912-7.346 0.97912-11.141v-2.8561l-32.542-11.135z" fill="url(#b)"/>
 <path d="m87.3 109.67 28.753 9.8488c1.234-3.4065 2.1609-6.9463 2.8098-10.596l-31.562-10.81z" fill="url(#a)"/>
 <path d="m54.72 109.26v11.558l32.576-11.141v-11.558z" fill="url(#g)"/>
 <path d="m54.72 120.81v41.666c11.871 0 22.988-3.1574 32.57-8.6727v-44.14z" fill="#525257"/>
 <path d="m589.68 195.73c0 0.12166-0.0406 0.20856-0.10428 0.29546-0.0579 0.0811-0.1796 0.15063-0.34181 0.20277-0.15642 0.0579-0.38237 0.10428-0.64886 0.13325-0.2607 0.0232-0.60251 0.0405-1.0023 0.0405-0.42871 0-0.7763-0.0174-1.037-0.0405-0.27229-0.029-0.47505-0.0753-0.63726-0.13325-0.16221-0.0521-0.28967-0.12166-0.36498-0.20277-0.0464-0.0869-0.0753-0.1738-0.0753-0.29546v-14.901c0-0.12166 0.029-0.21436 0.0753-0.29546 0.0753-0.0869 0.20277-0.15063 0.36498-0.22015 0.16222-0.0579 0.36497-0.0985 0.63726-0.13904 0.26072-0.0348 0.60831-0.0521 1.037-0.0521 0.39976 0 0.74157 0.0174 1.0023 0.0521 0.26649 0.0405 0.49244 0.0811 0.64886 0.13904 0.16221 0.0695 0.28387 0.13325 0.34181 0.22015 0.0637 0.0811 0.10428 0.1738 0.10428 0.29546zm0.31864-19.993c0 0.84583-0.1796 1.4252-0.5214 1.7612-0.33602 0.31863-0.99646 0.48664-1.9292 0.48664-0.95591 0-1.5816-0.16221-1.9118-0.48085-0.33022-0.31284-0.49244-0.86901-0.49244-1.6975 0-0.83425 0.16801-1.4252 0.50982-1.7554 0.33602-0.33023 0.97908-0.49244 1.935-0.49244 0.93274 0 1.5642 0.16221 1.906 0.48085 0.32443 0.31284 0.50403 0.8806 0.50403 1.6975m-8.3663 2e-3c0 0.84584-0.1738 1.4252-0.51561 1.7438-0.33602 0.33023-0.98488 0.49823-1.9292 0.49823-0.93853 0-1.5874-0.15642-1.9118-0.47505-0.34181-0.31285-0.49244-0.86901-0.49244-1.6917 0-0.84004 0.15063-1.431 0.51561-1.767 0.3476-0.32443 0.97908-0.48665 1.9292-0.48665s1.5816 0.16222 1.906 0.46927c0.32443 0.32443 0.49823 0.89218 0.49823 1.709m-0.31284 20.491c0 1.1761-0.11008 2.1262-0.30705 2.8446-0.20277 0.72997-0.49244 1.3441-0.91536 1.8365-0.39974 0.50402-0.90956 0.8748-1.5295 1.1239-0.61989 0.25491-1.3267 0.37657-2.1725 0.37657-0.4461 0-0.82845-0.029-1.1587-0.0869-0.31863-0.0579-0.55038-0.13904-0.70679-0.19118-0.13904-0.0811-0.23753-0.15643-0.30126-0.26071-0.0521-0.0927-0.0811-0.20856-0.11587-0.3476-0.0174-0.12166-0.029-0.2607-0.0463-0.42292-0.0174-0.16221-0.0174-0.37657-0.0174-0.63148 0-0.31284 0.0174-0.57354 0.0348-0.78211 0.0116-0.20277 0.029-0.37077 0.0811-0.49244 0.0464-0.12166 0.10429-0.20856 0.15063-0.27229 0.0637-0.0463 0.13904-0.0753 0.21436-0.0753 0.0637 0 0.1738 0.0174 0.3476 0.0405 0.1738 0.029 0.35919 0.0348 0.56196 0.0348 0.28388 0 0.53299-0.0463 0.75894-0.13324 0.19697-0.0869 0.38236-0.22595 0.50402-0.42871 0.13904-0.18539 0.23174-0.4403 0.31284-0.74735 0.0753-0.30705 0.0985-0.7937 0.0985-1.4657v-15.318c0-0.12745 0.0406-0.22015 0.0985-0.29546 0.0637-0.0927 0.1738-0.16221 0.34181-0.22015 0.15063-0.0579 0.37078-0.10428 0.63148-0.13904 0.2607-0.0406 0.60251-0.0579 1.0312-0.0579 0.40554 0 0.72418 0.0174 1.0196 0.0579 0.25491 0.0348 0.48085 0.0811 0.6199 0.13904 0.1738 0.0579 0.28387 0.12746 0.35339 0.22015 0.0637 0.0753 0.11008 0.16801 0.11008 0.29546zm-12.807-6.8478h-1.6048c-0.68362 0-1.2514 0.0521-1.7438 0.15642-0.48085 0.0927-0.8748 0.24912-1.1703 0.45768-0.30125 0.19118-0.5272 0.4403-0.64886 0.71838-0.14483 0.27808-0.21435 0.6141-0.21435 0.98488 0 0.61989 0.19118 1.1123 0.58513 1.4715 0.39974 0.35919 0.93853 0.53299 1.6569 0.53299 0.57934 0 1.1355-0.15063 1.6279-0.45768 0.49824-0.29546 1.0023-0.73576 1.5121-1.3093zm4.1365 6.4017c0 0.15642-0.0521 0.27808-0.17959 0.36498-0.10428 0.0985-0.27229 0.15643-0.53299 0.18539-0.23174 0.0463-0.58514 0.0695-1.0486 0.0695-0.50982 0-0.88059-0.0232-1.095-0.0695-0.23174-0.029-0.39395-0.0869-0.47506-0.18539-0.11007-0.0869-0.15063-0.20856-0.15063-0.36498v-1.1992c-0.6083 0.66624-1.3209 1.1761-2.103 1.5468-0.7879 0.37078-1.6511 0.55617-2.6244 0.55617-0.7879 0-1.5121-0.0985-2.1725-0.30705-0.66624-0.20856-1.2398-0.51561-1.7206-0.93274-0.48664-0.39974-0.8748-0.90377-1.1471-1.5063-0.25491-0.6083-0.38816-1.3035-0.38816-2.1088 0-0.87481 0.16222-1.6337 0.50403-2.2768 0.35919-0.63727 0.85163-1.1645 1.5179-1.5874 0.68941-0.41133 1.5237-0.72997 2.5317-0.93273 0.99646-0.18539 2.1667-0.30705 3.4992-0.30705h1.4484v-0.90377c0-0.46348-0.0579-0.86901-0.13904-1.2224-0.10428-0.3534-0.24332-0.64307-0.46927-0.8806-0.22594-0.23173-0.49823-0.40553-0.86901-0.51561-0.37077-0.11007-0.81686-0.1738-1.3441-0.1738-0.71259 0-1.3383 0.0811-1.8886 0.23753-0.55037 0.16221-1.0312 0.33022-1.4599 0.51561-0.4345 0.19118-0.7879 0.37078-1.0602 0.5272-0.30125 0.15642-0.51561 0.23174-0.701 0.23174-0.12166 0-0.23173-0.0406-0.33022-0.11008-0.0811-0.0927-0.16222-0.19697-0.22594-0.34181-0.0695-0.14483-0.12166-0.32443-0.13904-0.53299-0.0463-0.21436-0.0521-0.45189-0.0521-0.7068 0-0.3476 0.0232-0.61989 0.0695-0.82266 0.0637-0.20277 0.16221-0.37657 0.34181-0.53878 0.13904-0.16222 0.41712-0.34181 0.79948-0.54458 0.39975-0.19118 0.85163-0.37657 1.3788-0.53879 0.53299-0.16801 1.0892-0.30125 1.7264-0.41133 0.59672-0.0985 1.2456-0.15063 1.9118-0.15063 1.1529 0 2.1552 0.11008 2.9894 0.33602 0.84004 0.23174 1.5121 0.57934 2.0566 1.0544 0.53299 0.47506 0.92115 1.0834 1.1703 1.8365 0.24332 0.74156 0.37077 1.6337 0.37077 2.6592zm-17.126-0.0823c0 0.10428-0.029 0.20856-0.0927 0.29546-0.0753 0.0869-0.20277 0.16222-0.37078 0.22015-0.16222 0.0637-0.38237 0.0985-0.66045 0.12746-0.28967 0.0405-0.63727 0.0579-1.066 0.0579s-0.79949-0.0174-1.0834-0.0579c-0.26071-0.029-0.50402-0.0637-0.66044-0.12746-0.15643-0.0579-0.2781-0.13325-0.3592-0.22015-0.0637-0.0869-0.10428-0.19118-0.10428-0.29546v-8.7596h-8.0934v8.7596c0 0.10428-0.0348 0.20856-0.0985 0.29546-0.0811 0.0869-0.19697 0.16222-0.35339 0.22015-0.17381 0.0637-0.39395 0.0985-0.68362 0.12746-0.25491 0.0405-0.62569 0.0579-1.0602 0.0579-0.41712 0-0.77053-0.0174-1.066-0.0579-0.28967-0.029-0.50982-0.0637-0.67783-0.12746-0.16221-0.0579-0.27808-0.13325-0.35339-0.22015-0.0811-0.0869-0.11008-0.19118-0.11008-0.29546v-20.462c0-0.12166 0.029-0.22015 0.11008-0.30705 0.0753-0.0985 0.19118-0.16801 0.35339-0.23174 0.16801-0.0405 0.38816-0.0869 0.67783-0.12166 0.29546-0.0348 0.64886-0.0463 1.066-0.0463 0.43451 0 0.80529 0.0116 1.0602 0.0463 0.28967 0.0348 0.50981 0.0811 0.68362 0.12166 0.15642 0.0637 0.27229 0.13325 0.35339 0.23174 0.0637 0.0869 0.0985 0.18539 0.0985 0.30705v7.9485h8.0934v-7.9485c0-0.12166 0.0406-0.22015 0.10428-0.30705 0.0811-0.0985 0.20277-0.16801 0.3592-0.23174 0.15642-0.0405 0.39973-0.0869 0.66044-0.12166 0.28387-0.0348 0.65466-0.0463 1.0834-0.0463 0.42871 0 0.77631 0.0116 1.066 0.0463 0.27808 0.0348 0.49823 0.0811 0.66045 0.12166 0.16801 0.0637 0.29546 0.13325 0.37078 0.23174 0.0637 0.0869 0.0927 0.18539 0.0927 0.30705zm-28.896 0.0284c0 0.12166-0.0232 0.20856-0.0927 0.29546-0.0637 0.0811-0.1796 0.15063-0.32443 0.20277-0.17381 0.0579-0.38816 0.10428-0.64886 0.13325-0.27809 0.0232-0.6199 0.0405-1.0196 0.0405-0.40554 0-0.75314-0.0174-1.0312-0.0405-0.27808-0.029-0.48085-0.0753-0.64306-0.13325-0.14484-0.0521-0.2665-0.12166-0.33023-0.20277-0.0753-0.0869-0.10428-0.1738-0.10428-0.29546v-8.5163c0-0.73576-0.0579-1.2977-0.16221-1.7206-0.10428-0.40554-0.24912-0.76473-0.44609-1.0602-0.21436-0.28967-0.46927-0.5214-0.78211-0.68362-0.34181-0.16221-0.69521-0.24332-1.1297-0.24332-0.52141 0-1.0776 0.19118-1.6164 0.59092-0.53879 0.37657-1.1123 0.95591-1.6975 1.7033v9.9299c0 0.12166-0.0348 0.20856-0.11007 0.29546-0.0695 0.0811-0.18539 0.15063-0.33602 0.20277-0.15642 0.0579-0.38815 0.10428-0.64886 0.13325-0.26648 0.0232-0.60251 0.0405-1.0196 0.0405-0.41134 0-0.75894-0.0174-1.0196-0.0405-0.27809-0.029-0.48665-0.0753-0.64886-0.13325-0.16801-0.0521-0.27809-0.12166-0.33601-0.20277-0.0811-0.0869-0.11007-0.1738-0.11007-0.29546v-14.941c0-0.11008 0.029-0.20277 0.0927-0.28388 0.0463-0.0927 0.15642-0.16222 0.28967-0.21436 0.14484-0.0521 0.34181-0.0927 0.57355-0.12745 0.22015-0.0232 0.50981-0.0405 0.85742-0.0405 0.3476 0 0.65465 0.0174 0.88639 0.0405 0.23173 0.0348 0.41712 0.0753 0.53878 0.12745 0.14484 0.0521 0.22015 0.12166 0.27809 0.21436 0.0521 0.0811 0.0927 0.1738 0.0927 0.28388v1.7264c0.82266-0.89798 1.6511-1.5526 2.5143-2.0103 0.85163-0.4403 1.7438-0.66045 2.6708-0.66045 1.0023 0 1.8655 0.15642 2.5607 0.49823 0.701 0.33023 1.2688 0.78791 1.6975 1.3672 0.43451 0.57354 0.74156 1.2398 0.93274 2.0161 0.18539 0.76472 0.27229 1.6975 0.27229 2.7808zm-22.528-6.3478h-1.5932c-0.67204 0-1.2514 0.0521-1.7438 0.15642-0.48085 0.0927-0.8748 0.24912-1.1645 0.45768-0.31284 0.19118-0.5272 0.4403-0.66624 0.71838s-0.20856 0.6141-0.20856 0.98488c0 0.61989 0.19118 1.1123 0.59672 1.4715 0.38236 0.35919 0.93853 0.53299 1.6511 0.53299 0.58513 0 1.1239-0.15063 1.6164-0.45768 0.51562-0.29546 1.0138-0.73576 1.5121-1.3093zm4.1365 6.4017c0 0.15642-0.0463 0.27808-0.15642 0.36498-0.10428 0.0985-0.28967 0.15643-0.53878 0.18539-0.23174 0.0463-0.57355 0.0695-1.0544 0.0695-0.50403 0-0.85742-0.0232-1.0892-0.0695-0.23753-0.029-0.39974-0.0869-0.48664-0.18539-0.10429-0.0869-0.14484-0.20856-0.14484-0.36498v-1.1992c-0.61989 0.66624-1.3151 1.1761-2.0972 1.5468-0.7879 0.37078-1.6685 0.55617-2.6302 0.55617-0.78211 0-1.5063-0.0985-2.1667-0.30705-0.66624-0.20856-1.2572-0.51561-1.738-0.93274-0.48085-0.39974-0.85742-0.90377-1.1181-1.5063-0.27229-0.6083-0.39975-1.3035-0.39975-2.1088 0-0.87481 0.16801-1.6337 0.49824-2.2768 0.3476-0.63727 0.85742-1.1645 1.5352-1.5874 0.66625-0.41133 1.5121-0.72997 2.5028-0.93273 1.008-0.18539 2.1725-0.30705 3.4992-0.30705h1.4484v-0.90377c0-0.46348-0.029-0.86901-0.13325-1.2224-0.0985-0.3534-0.24332-0.64307-0.46926-0.8806-0.21436-0.23173-0.49823-0.40553-0.86901-0.51561-0.35919-0.11007-0.79369-0.1738-1.3499-0.1738-0.701 0-1.3267 0.0811-1.8829 0.23753-0.54458 0.16221-1.0312 0.33022-1.4541 0.51561-0.4345 0.19118-0.78211 0.37078-1.0602 0.5272-0.29546 0.15642-0.51561 0.23174-0.69521 0.23174-0.12166 0-0.23753-0.0406-0.33601-0.11008-0.0869-0.0927-0.17381-0.19697-0.23174-0.34181-0.0637-0.14483-0.11007-0.32443-0.13904-0.53299-0.0464-0.21436-0.0637-0.45189-0.0637-0.7068 0-0.3476 0.0464-0.61989 0.0927-0.82266 0.0637-0.20277 0.168-0.37657 0.31863-0.53878 0.16222-0.16222 0.42871-0.34181 0.82266-0.54458 0.38816-0.19118 0.85163-0.37657 1.373-0.53879 0.5214-0.16801 1.095-0.30125 1.7148-0.41133 0.60831-0.0985 1.263-0.15063 1.9118-0.15063 1.1703 0 2.1725 0.11008 3.0068 0.33602 0.83424 0.23174 1.5121 0.57934 2.0566 1.0544 0.52141 0.47506 0.92115 1.0834 1.1587 1.8365 0.24912 0.74156 0.36498 1.6337 0.36498 2.6592zm-20.258-10.424c0-0.79949-0.22015-1.431-0.66044-1.8655-0.45768-0.44609-1.066-0.67783-1.906-0.67783-0.41134 0-0.76473 0.0753-1.0834 0.21436-0.30705 0.13904-0.56196 0.32443-0.77631 0.56775-0.20277 0.24332-0.35919 0.5214-0.46347 0.83425-0.0927 0.32443-0.15063 0.65465-0.15063 0.99646 0 0.76473 0.22594 1.3614 0.67782 1.796 0.4461 0.4403 1.0718 0.66624 1.8597 0.66624 0.41133 0 0.78211-0.0579 1.1008-0.19118 0.31864-0.14483 0.56775-0.32443 0.77052-0.56196 0.21436-0.23173 0.37078-0.49823 0.46926-0.81107 0.12746-0.30705 0.16222-0.62569 0.16222-0.9675m0.97908 11.934c0-0.50402-0.1738-0.89218-0.59092-1.1645-0.39975-0.2665-0.95591-0.41133-1.6511-0.42871l-2.9952-0.0869c-0.30126 0.21435-0.5272 0.41133-0.7068 0.6141-0.16801 0.19697-0.30126 0.37657-0.41712 0.56196-0.0927 0.1738-0.16801 0.3476-0.20277 0.51561-0.0464 0.16221-0.0521 0.33602-0.0521 0.5214 0 0.55617 0.28387 0.97909 0.84583 1.2746 0.56776 0.28967 1.3672 0.42292 2.3695 0.42292 0.64886 0 1.1876-0.0579 1.6164-0.1796 0.45188-0.12166 0.79369-0.30125 1.0602-0.51561 0.27229-0.21435 0.4403-0.44609 0.56196-0.71838 0.11587-0.2607 0.16221-0.5272 0.16221-0.81687m4.4377-15.463c0 0.533-0.0637 0.93274-0.20276 1.1876-0.11009 0.25491-0.25491 0.38236-0.4403 0.38236h-1.7612c0.26071 0.2665 0.42872 0.57355 0.53878 0.90957 0.0927 0.3476 0.15063 0.701 0.15063 1.0718 0 0.86901-0.13904 1.6395-0.42871 2.3174-0.30126 0.67783-0.71259 1.2514-1.2572 1.709-0.53299 0.46347-1.1992 0.81687-1.9524 1.0544-0.76473 0.23753-1.6106 0.35919-2.5665 0.35919-0.47505 0-0.92116-0.0637-1.3672-0.1738-0.43449-0.11587-0.75892-0.25491-1.0022-0.41133-0.12746 0.14483-0.24911 0.31284-0.34761 0.5214-0.11007 0.20277-0.1738 0.42292-0.1738 0.66624 0 0.33023 0.15063 0.58514 0.42871 0.7937 0.29546 0.21435 0.69521 0.31864 1.1992 0.3534l3.6267 0.12745c0.86321 0.029 1.6106 0.14484 2.2768 0.36498 0.66045 0.20277 1.2108 0.49244 1.6743 0.87481 0.46348 0.35919 0.79369 0.81687 1.0312 1.3383 0.24911 0.5272 0.36497 1.1239 0.36497 1.7902 0 0.74155-0.1622 1.4368-0.48663 2.0914-0.32443 0.64886-0.79949 1.2108-1.4484 1.6917-0.65467 0.48664-1.4657 0.86321-2.439 1.1413-0.98487 0.28967-2.1146 0.42291-3.4239 0.42291-1.2803 0-2.3579-0.10428-3.2559-0.29546-0.89797-0.20856-1.6395-0.48664-2.2015-0.84004-0.57934-0.35919-1.0081-0.7879-1.263-1.2861-0.25491-0.49823-0.39396-1.037-0.39396-1.6279 0-0.37657 0.0463-0.72417 0.13905-1.0602 0.11006-0.34181 0.23172-0.66045 0.43449-0.9617 0.16801-0.30126 0.41133-0.59672 0.67203-0.87481 0.2665-0.27808 0.57355-0.55037 0.89798-0.81107-0.46347-0.25491-0.82846-0.60251-1.0892-1.0428-0.26649-0.4403-0.40554-0.92695-0.40554-1.4541 0-0.65466 0.15063-1.2572 0.46348-1.8018 0.28967-0.53879 0.6952-1.0254 1.1703-1.4599-0.39395-0.39395-0.70679-0.86321-0.93273-1.402-0.23753-0.55037-0.3534-1.234-0.3534-2.0451 0-0.8748 0.14483-1.6511 0.45188-2.3463 0.30705-0.68362 0.74156-1.263 1.2803-1.7322 0.54458-0.46926 1.205-0.84004 1.9466-1.0892 0.78211-0.24912 1.6048-0.38237 2.5259-0.38237 0.46348 0 0.91535 0.029 1.3441 0.0869 0.43452 0.0579 0.83425 0.13325 1.1934 0.23753h4.739c0.18539 0 0.3476 0.11587 0.47506 0.36499 0.10428 0.25491 0.168 0.65465 0.168 1.2398m-17.527 13.898c0 0.12166-0.0405 0.20856-0.11007 0.29546-0.0463 0.0811-0.16801 0.15063-0.33602 0.20277-0.13904 0.0579-0.36499 0.10428-0.63726 0.13325-0.2665 0.0232-0.6141 0.0405-1.0023 0.0405-0.42292 0-0.77632-0.0174-1.0312-0.0405-0.28387-0.029-0.49243-0.0753-0.64887-0.13325-0.15062-0.0521-0.2607-0.12166-0.336-0.20277-0.0637-0.0869-0.0927-0.1738-0.0927-0.29546v-8.5163c0-0.73576-0.0521-1.2977-0.1622-1.7206-0.11587-0.40554-0.25491-0.76473-0.46928-1.0602-0.19696-0.28967-0.45187-0.5214-0.77631-0.68362-0.31863-0.16221-0.68362-0.24332-1.1007-0.24332-0.55616 0-1.0892 0.19118-1.6337 0.59092-0.54458 0.37657-1.1181 0.95591-1.7033 1.7033v9.9299c0 0.12166-0.0406 0.20856-0.0985 0.29546-0.0695 0.0811-0.18539 0.15063-0.3534 0.20277-0.15642 0.0579-0.37077 0.10428-0.63148 0.13325-0.27808 0.0232-0.6141 0.0405-1.037 0.0405-0.39974 0-0.74734-0.0174-0.99646-0.0405-0.27808-0.029-0.49244-0.0753-0.66045-0.13325-0.16221-0.0521-0.26649-0.12166-0.33022-0.20277-0.0811-0.0869-0.11007-0.1738-0.11007-0.29546v-14.941c0-0.11008 0.029-0.20277 0.0869-0.28388 0.0463-0.0927 0.15063-0.16222 0.28967-0.21436 0.15063-0.0521 0.35339-0.0927 0.56775-0.12745 0.23174-0.0232 0.51561-0.0405 0.8806-0.0405 0.33601 0 0.63148 0.0174 0.85742 0.0405 0.24911 0.0348 0.42292 0.0753 0.56196 0.12745 0.12166 0.0521 0.21435 0.12166 0.27229 0.21436 0.0579 0.0811 0.0811 0.1738 0.0811 0.28388v1.7264c0.83425-0.89798 1.6627-1.5526 2.5143-2.0103 0.86321-0.4403 1.7438-0.66045 2.6881-0.66045 0.99647 0 1.8481 0.15642 2.5607 0.49823 0.68942 0.33023 1.2456 0.78791 1.6743 1.3672 0.43451 0.57354 0.75894 1.2398 0.93274 2.0161 0.19698 0.76472 0.28967 1.6975 0.28967 2.7808zm-22.526-6.3478h-1.6048c-0.67783 0-1.263 0.0521-1.7438 0.15642-0.48085 0.0927-0.86322 0.24912-1.1703 0.45768-0.29546 0.19118-0.50982 0.4403-0.66624 0.71838-0.12745 0.27808-0.20277 0.6141-0.20277 0.98488 0 0.61989 0.20277 1.1123 0.60252 1.4715 0.38815 0.35919 0.94432 0.53299 1.6395 0.53299 0.59672 0 1.1297-0.15063 1.6279-0.45768 0.49823-0.29546 1.008-0.73576 1.5179-1.3093zm4.1249 6.4017c0 0.15642-0.0463 0.27808-0.15642 0.36498-0.11008 0.0985-0.29547 0.15643-0.5272 0.18539-0.23174 0.0463-0.58514 0.0695-1.0602 0.0695-0.51562 0-0.86901-0.0232-1.1008-0.0695-0.22015-0.029-0.38816-0.0869-0.49244-0.18539-0.0811-0.0869-0.13904-0.20856-0.13904-0.36498v-1.1992c-0.60831 0.66624-1.3093 1.1761-2.0972 1.5468-0.7879 0.37078-1.6511 0.55617-2.6186 0.55617-0.7937 0-1.5179-0.0985-2.1841-0.30705-0.66045-0.20856-1.234-0.51561-1.7148-0.93274-0.48085-0.39974-0.85742-0.90377-1.1355-1.5063-0.2665-0.6083-0.39975-1.3035-0.39975-2.1088 0-0.87481 0.16801-1.6337 0.51562-2.2768 0.33022-0.63727 0.84004-1.1645 1.5005-1.5874 0.68362-0.41133 1.5295-0.72997 2.5375-0.93273 1.008-0.18539 2.1609-0.30705 3.4992-0.30705h1.4484v-0.90377c0-0.46348-0.0463-0.86901-0.14483-1.2224-0.0869-0.3534-0.24912-0.64307-0.46927-0.8806-0.20277-0.23173-0.49823-0.40553-0.85742-0.51561-0.36499-0.11007-0.82266-0.1738-1.3499-0.1738-0.7068 0-1.3441 0.0811-1.8886 0.23753-0.54458 0.16221-1.0486 0.33022-1.4599 0.51561-0.41712 0.19118-0.7821 0.37078-1.0718 0.5272-0.28388 0.15642-0.50403 0.23174-0.68942 0.23174-0.11007 0-0.22015-0.0406-0.32443-0.11008-0.0927-0.0927-0.18539-0.19697-0.22594-0.34181-0.0637-0.14483-0.11007-0.32443-0.15642-0.53299-0.0348-0.21436-0.0521-0.45189-0.0521-0.7068 0-0.3476 0.0348-0.61989 0.0985-0.82266 0.0463-0.20277 0.15062-0.37657 0.30705-0.53878 0.1738-0.16222 0.4345-0.34181 0.81686-0.54458 0.39396-0.19118 0.84584-0.37657 1.373-0.53879 0.53299-0.16801 1.1123-0.30125 1.7322-0.41133 0.60831-0.0985 1.2456-0.15063 1.9118-0.15063 1.1645 0 2.1725 0.11008 2.9894 0.33602 0.83424 0.23174 1.5121 0.57934 2.0566 1.0544 0.53879 0.47506 0.92694 1.0834 1.1703 1.8365 0.24911 0.74156 0.35919 1.6337 0.35919 2.6592zm-16.869-0.0539c0 0.12166-0.029 0.20856-0.0927 0.29546-0.0637 0.0811-0.15063 0.15063-0.28967 0.20277-0.13325 0.0579-0.31864 0.10428-0.54458 0.13325-0.23174 0.0232-0.50982 0.0405-0.86901 0.0405-0.36499 0-0.66624-0.0174-0.89798-0.0405-0.23753-0.029-0.41711-0.0753-0.53878-0.13325-0.13324-0.0521-0.22595-0.12166-0.28387-0.20277-0.0637-0.0869-0.0869-0.1738-0.0869-0.29546v-1.7148c-0.82267 0.88638-1.6743 1.5584-2.5143 1.9929-0.85743 0.45768-1.7322 0.68362-2.6534 0.68362-1.0312 0-1.8886-0.168-2.5781-0.50402-0.701-0.33602-1.2746-0.7937-1.6917-1.3788-0.43451-0.57355-0.73576-1.2514-0.91535-2.0219-0.19119-0.76473-0.28387-1.7148-0.28387-2.8504v-9.1478c0-0.11008 0.029-0.20277 0.0927-0.28388 0.0463-0.0927 0.16801-0.16222 0.34181-0.21436 0.15642-0.0521 0.37078-0.0927 0.63727-0.12745 0.28387-0.0232 0.6083-0.0405 1.0196-0.0405 0.41133 0 0.74734 0.0174 1.0196 0.0405 0.2665 0.0348 0.48664 0.0753 0.63727 0.12745 0.15642 0.0521 0.27809 0.12166 0.34181 0.21436 0.0637 0.0811 0.11008 0.1738 0.11008 0.28388v8.4352c0 0.7879 0.0579 1.3904 0.13905 1.8017 0.11586 0.41713 0.27229 0.76473 0.46925 1.066 0.20857 0.28967 0.47506 0.5214 0.78211 0.68362 0.31864 0.16221 0.68942 0.24332 1.1239 0.24332 0.52141 0 1.0602-0.19697 1.6048-0.57934 0.53879-0.39395 1.1239-0.96749 1.7322-1.709v-9.9415c0-0.11008 0.0406-0.20277 0.0985-0.28388 0.0637-0.0927 0.15643-0.16222 0.32443-0.21436 0.16222-0.0521 0.38816-0.0927 0.64886-0.12745 0.2665-0.0232 0.60831-0.0405 1.0254-0.0405 0.41713 0 0.75315 0.0174 1.0196 0.0405 0.25491 0.0348 0.48085 0.0753 0.63728 0.12745 0.15062 0.0521 0.26649 0.12166 0.33601 0.21436 0.0637 0.0811 0.0985 0.1738 0.0985 0.28388zm-21.646-9.1119c0.0406-1.1818-0.19698-2.1146-0.69521-2.7924-0.51561-0.66624-1.3035-1.008-2.3579-1.008-0.5272 0-1.0081 0.0985-1.4078 0.30126-0.39975 0.20277-0.72418 0.48085-0.97329 0.81107-0.27229 0.34182-0.47506 0.74735-0.6141 1.2108-0.12167 0.46348-0.21437 0.96171-0.23174 1.4773zm4.0901 1.205c0 0.51561-0.12166 0.89218-0.35339 1.1413-0.22015 0.24912-0.54458 0.37078-0.92694 0.37078h-9.0898c0 0.63148 0.0811 1.2166 0.23174 1.7322 0.13324 0.5214 0.38235 0.95591 0.71258 1.3267 0.33023 0.35919 0.74735 0.63148 1.263 0.82267 0.5272 0.19118 1.1587 0.28387 1.8713 0.28387 0.73576 0 1.3846-0.0463 1.9408-0.15642 0.55615-0.10428 1.0312-0.22015 1.4484-0.3476 0.39973-0.13904 0.74154-0.24912 1.0022-0.3534 0.27809-0.10428 0.49244-0.16801 0.66624-0.16801 0.0927 0 0.18539 0.029 0.25491 0.0637 0.0579 0.0405 0.11587 0.11007 0.16222 0.20856 0.0463 0.0985 0.0753 0.24912 0.0869 0.42871 6e-3 0.18539 0.0348 0.41713 0.0348 0.701 0 0.23753-0.0174 0.45189-0.029 0.62569-6e-3 0.16801-0.0174 0.31864-0.0463 0.4403-0.0232 0.12745-0.0637 0.23173-0.0927 0.31284-0.0579 0.0811-0.11587 0.16801-0.1738 0.24332-0.0753 0.0695-0.28967 0.1796-0.60251 0.31864-0.33602 0.13325-0.73577 0.2665-1.2456 0.39395-0.48666 0.12166-1.066 0.23174-1.7091 0.33022-0.66044 0.0927-1.3441 0.14484-2.0856 0.14484-1.3267 0-2.4854-0.16801-3.4876-0.49823-0.98488-0.34181-1.8365-0.85163-2.497-1.5295-0.68362-0.67783-1.1761-1.5352-1.4889-2.5781-0.34761-1.0486-0.50402-2.2594-0.50402-3.6498 0-1.3267 0.16801-2.5317 0.5272-3.5977 0.33022-1.066 0.82845-1.9698 1.4947-2.7113 0.66045-0.73577 1.4484-1.3035 2.3985-1.7033 0.95012-0.38816 2.0161-0.57355 3.1922-0.57355 1.2514 0 2.3232 0.16801 3.198 0.53879 0.8922 0.37077 1.6164 0.88059 2.1957 1.541 0.56196 0.65465 0.97908 1.4252 1.234 2.3116 0.28388 0.90377 0.41713 1.8713 0.41713 2.9141zm-15.776 7.8165c0 0.12745-0.0405 0.24332-0.10428 0.33022-0.0405 0.0985-0.16222 0.17381-0.33602 0.24333-0.1738 0.0579-0.41711 0.10428-0.71838 0.13324-0.28967 0.0406-0.67203 0.0579-1.1413 0.0579-0.72417 0-1.2398-0.029-1.5584-0.0869-0.31284-0.0579-0.54458-0.14484-0.68362-0.24912-0.13904-0.11587-0.24911-0.24911-0.32443-0.39974l-6.5407-10.289v10.289c0 0.12166-0.0406 0.22594-0.10428 0.31863-0.0695 0.0811-0.18539 0.15643-0.3534 0.22595-0.1796 0.0579-0.41133 0.10428-0.67204 0.13324-0.27808 0.0406-0.64886 0.0579-1.0718 0.0579-0.42292 0-0.77632-0.0174-1.0544-0.0579-0.29546-0.029-0.52141-0.0753-0.69521-0.13324-0.15642-0.0695-0.27808-0.14484-0.3534-0.22595-0.0753-0.0927-0.0985-0.19697-0.0985-0.31863v-20.422c0-0.12166 0.0232-0.23173 0.0985-0.31864 0.0753-0.0927 0.19699-0.168 0.3534-0.22594 0.1738-0.0405 0.39975-0.0869 0.69521-0.12166 0.27808-0.0405 0.63148-0.0521 1.0544-0.0521 0.42291 0 0.79369 0.0116 1.0718 0.0521 0.26071 0.0348 0.49244 0.0811 0.67204 0.12166 0.16801 0.0579 0.28387 0.13325 0.3534 0.22594 0.0637 0.0869 0.10428 0.19698 0.10428 0.31864v9.2289l6.338-9.2115c0.0695-0.14483 0.16801-0.26649 0.27809-0.35919s0.26649-0.16801 0.44029-0.22594c0.18539-0.0637 0.41134-0.0869 0.68941-0.12166 0.27809-0.0174 0.63148-0.029 1.0718-0.029 0.43451 0 0.80528 0.0116 1.1008 0.0521 0.28967 0.0348 0.5214 0.0811 0.6952 0.13904 0.16801 0.0579 0.28967 0.13325 0.3592 0.22594 0.0637 0.0869 0.10428 0.18539 0.10428 0.30126 0 0.19698-0.0637 0.38816-0.16222 0.58513-0.0869 0.20857-0.28967 0.52141-0.56775 0.96171l-5.9324 7.7863 6.477 9.7966c0.24911 0.45188 0.39395 0.75893 0.44609 0.91536 0.0464 0.14483 0.0695 0.26649 0.0695 0.3476m-32.005-6.2574h-1.6048c-0.67783 0-1.2688 0.0521-1.7438 0.15642-0.48665 0.0927-0.8748 0.24912-1.1761 0.45768-0.30705 0.19118-0.51561 0.4403-0.66045 0.71838-0.13904 0.27808-0.20856 0.6141-0.20856 0.98488 0 0.61989 0.19698 1.1123 0.59093 1.4715 0.40553 0.35919 0.94432 0.53299 1.6453 0.53299 0.59093 0 1.1413-0.15063 1.6279-0.45768 0.50982-0.29546 1.0138-0.73576 1.5295-1.3093zm4.1249 6.4017c0 0.15642-0.0521 0.27808-0.15642 0.36498-0.11008 0.0985-0.28388 0.15643-0.54458 0.18539-0.23174 0.0463-0.58514 0.0695-1.0428 0.0695-0.51562 0-0.86901-0.0232-1.1008-0.0695-0.24332-0.029-0.39973-0.0869-0.49244-0.18539-0.0927-0.0869-0.13904-0.20856-0.13904-0.36498v-1.1992c-0.61989 0.66624-1.3151 1.1761-2.0972 1.5468-0.7879 0.37078-1.6627 0.55617-2.6186 0.55617-0.7879 0-1.5179-0.0985-2.2015-0.30705-0.64307-0.20856-1.2224-0.51561-1.709-0.93274-0.48086-0.39974-0.85163-0.90377-1.1413-1.5063-0.25491-0.6083-0.38816-1.3035-0.38816-2.1088 0-0.87481 0.1738-1.6337 0.50402-2.2768 0.3534-0.63727 0.85163-1.1645 1.5179-1.5874 0.67783-0.41133 1.5121-0.72997 2.5201-0.93273 1.0138-0.18539 2.1725-0.30705 3.4992-0.30705h1.4657v-0.90377c0-0.46348-0.0463-0.86901-0.14483-1.2224-0.0927-0.3534-0.25491-0.64307-0.46927-0.8806-0.22015-0.23173-0.50403-0.40553-0.86901-0.51561-0.37078-0.11007-0.81687-0.1738-1.3556-0.1738-0.69521 0-1.3267 0.0811-1.8829 0.23753-0.55037 0.16221-1.0428 0.33022-1.4657 0.51561-0.41712 0.19118-0.76472 0.37078-1.066 0.5272-0.27808 0.15642-0.49244 0.23174-0.67783 0.23174-0.13904 0-0.23753-0.0406-0.34181-0.11008-0.0927-0.0927-0.16801-0.19697-0.22594-0.34181-0.0637-0.14483-0.11007-0.32443-0.15063-0.53299-0.0232-0.21436-0.0405-0.45189-0.0405-0.7068 0-0.3476 0.0348-0.61989 0.0811-0.82266 0.0579-0.20277 0.168-0.37657 0.32443-0.53878 0.15642-0.16222 0.42291-0.34181 0.82845-0.54458 0.37078-0.19118 0.83425-0.37657 1.3614-0.53879 0.51561-0.16801 1.095-0.30125 1.7206-0.41133 0.6083-0.0985 1.2572-0.15063 1.9176-0.15063 1.1587 0 2.1609 0.11008 2.9952 0.33602 0.81686 0.23174 1.5237 0.57934 2.0509 1.0544s0.91535 1.0834 1.1645 1.8365c0.24912 0.74156 0.37078 1.6337 0.37078 2.6592zm-16.855-0.0539c0 0.12166-0.029 0.20856-0.0927 0.29546-0.0753 0.0811-0.18539 0.15063-0.34761 0.20277-0.16221 0.0579-0.36498 0.10428-0.64306 0.13325-0.25491 0.0232-0.60831 0.0405-1.0312 0.0405-0.39974 0-0.74155-0.0174-1.0023-0.0405-0.27808-0.029-0.49243-0.0753-0.64886-0.13325-0.16221-0.0521-0.28387-0.12166-0.3476-0.20277-0.0695-0.0869-0.0985-0.1738-0.0985-0.29546v-22.026c0-0.11007 0.029-0.20276 0.0985-0.29546 0.0637-0.0811 0.18539-0.16801 0.3476-0.23173 0.15643-0.0579 0.37078-0.10429 0.64886-0.13325 0.26071-0.0348 0.60252-0.0579 1.0023-0.0579 0.42292 0 0.77632 0.0232 1.0312 0.0579 0.27808 0.029 0.48085 0.0753 0.64306 0.13325 0.16222 0.0637 0.27229 0.15062 0.34761 0.23173 0.0637 0.0927 0.0927 0.18539 0.0927 0.29546zm-11.802-7.4567c0-0.73576-0.0637-1.4136-0.18539-2.0335-0.10428-0.61989-0.30705-1.1529-0.58513-1.6164-0.27808-0.45768-0.66624-0.81107-1.1065-1.066-0.47506-0.26071-1.0544-0.38816-1.7496-0.38816-0.63148 0-1.1876 0.11587-1.6511 0.34181s-0.85163 0.56775-1.1587 1.008c-0.28967 0.44609-0.52141 0.97329-0.67204 1.5874-0.13904 0.62569-0.23752 1.3267-0.23752 2.1204 0 0.73576 0.0811 1.4136 0.19118 2.0277 0.13325 0.61989 0.33601 1.1645 0.59672 1.6222 0.27808 0.45189 0.64306 0.81108 1.1123 1.066 0.48085 0.25491 1.0428 0.37657 1.7438 0.37657 0.63148 0 1.1819-0.11587 1.6511-0.34181 0.46926-0.23174 0.86321-0.55617 1.1529-0.99647 0.30705-0.4345 0.53879-0.9617 0.67783-1.5816 0.15063-0.6141 0.22015-1.3267 0.22015-2.1262m4.3277-0.16222c0 1.2688-0.16222 2.4332-0.50403 3.4818-0.33601 1.0486-0.82845 1.964-1.5121 2.7113-0.68941 0.76473-1.541 1.3499-2.5665 1.767-1.0254 0.41133-2.2247 0.61989-3.6035 0.61989-1.3267 0-2.4854-0.18539-3.4529-0.56196-0.99067-0.37077-1.7902-0.89797-2.4448-1.6048-0.65465-0.701-1.1355-1.5642-1.4483-2.5838-0.29548-1.037-0.47506-2.2131-0.47506-3.5224 0-1.2803 0.17958-2.439 0.53299-3.4992 0.33022-1.0486 0.84583-1.9582 1.5179-2.7113 0.67783-0.75894 1.541-1.3325 2.5433-1.7496 1.037-0.41133 2.2247-0.6141 3.5977-0.6141 1.3383 0 2.5027 0.1738 3.4876 0.54458 0.97329 0.35919 1.796 0.88639 2.4332 1.599 0.63727 0.6952 1.1065 1.5642 1.4252 2.5896 0.32443 1.037 0.46927 2.2131 0.46927 3.534m-19.218 7.6189c0 0.12166-0.0464 0.20856-0.10428 0.29546-0.0695 0.0811-0.1796 0.15063-0.34181 0.20277-0.16801 0.0579-0.38816 0.10428-0.63148 0.13325-0.29546 0.0232-0.63148 0.0405-1.0254 0.0405-0.42871 0-0.76473-0.0174-1.0254-0.0405-0.27809-0.029-0.49244-0.0753-0.65466-0.13325-0.16801-0.0521-0.27229-0.12166-0.33022-0.20277-0.0811-0.0869-0.11007-0.1738-0.11007-0.29546v-22.026c0-0.11007 0.029-0.20276 0.11007-0.29546 0.0579-0.0811 0.16221-0.16801 0.33022-0.23173 0.16222-0.0579 0.37657-0.10429 0.65466-0.13325 0.2607-0.0348 0.59672-0.0579 1.0254-0.0579 0.39395 0 0.72997 0.0232 1.0254 0.0579 0.24332 0.029 0.46347 0.0753 0.63148 0.13325 0.16221 0.0637 0.27229 0.15062 0.34181 0.23173 0.0579 0.0927 0.10428 0.18539 0.10428 0.29546zm-11.691-9.1119c0.0232-1.1818-0.21436-2.1146-0.71259-2.7924-0.5214-0.66624-1.3093-1.008-2.3579-1.008-0.54457 0-1.0138 0.0985-1.3904 0.30126-0.39976 0.20277-0.73577 0.48085-0.99067 0.81107-0.27229 0.34182-0.47506 0.74735-0.60253 1.2108-0.15063 0.46348-0.22594 0.96171-0.2491 1.4773zm4.0728 1.205c0 0.51561-0.11008 0.89218-0.33602 1.1413-0.23173 0.24912-0.54458 0.37078-0.95591 0.37078h-9.084c0 0.63148 0.0695 1.2166 0.24332 1.7322 0.13325 0.5214 0.36497 0.95591 0.70678 1.3267 0.31864 0.35919 0.75315 0.63148 1.2688 0.82267 0.5214 0.19118 1.1529 0.28387 1.8713 0.28387 0.72997 0 1.3846-0.0463 1.9408-0.15642 0.55037-0.10428 1.0254-0.22015 1.4368-0.3476 0.41133-0.13904 0.74735-0.24912 1.0138-0.3534 0.27229-0.10428 0.49823-0.16801 0.66044-0.16801 0.0927 0 0.18539 0.029 0.24912 0.0637 0.0637 0.0405 0.12745 0.11007 0.16801 0.20856 0.0463 0.0985 0.0695 0.24912 0.0927 0.42871 0.0174 0.18539 0.029 0.41713 0.029 0.701 0 0.23753-0.0116 0.45189-0.029 0.62569-6e-3 0.16801-0.0232 0.31864-0.0464 0.4403-0.0232 0.12745-0.0463 0.23173-0.0927 0.31284-0.0579 0.0811-0.11007 0.16801-0.17959 0.24332-0.0695 0.0695-0.2665 0.1796-0.60252 0.31864-0.31284 0.13325-0.72417 0.2665-1.2224 0.39395-0.50982 0.12166-1.0834 0.23174-1.7264 0.33022-0.66044 0.0927-1.3441 0.14484-2.0856 0.14484-1.3267 0-2.4912-0.16801-3.4876-0.49823-0.99646-0.34181-1.8307-0.85163-2.5028-1.5295-0.66044-0.67783-1.1529-1.5352-1.4947-2.5781-0.32443-1.0486-0.49244-2.2594-0.49244-3.6498 0-1.3267 0.18539-2.5317 0.50982-3.5977 0.35339-1.066 0.86321-1.9698 1.5063-2.7113 0.64886-0.73577 1.4715-1.3035 2.4158-1.7033 0.93852-0.38816 2.0045-0.57355 3.1864-0.57355 1.2456 0 2.3174 0.16801 3.198 0.53879 0.89218 0.37077 1.6164 0.88059 2.1957 1.541 0.55037 0.65465 0.97909 1.4252 1.2456 2.3116 0.2665 0.90377 0.39975 1.8713 0.39975 2.9141zm-21.555-2.4634c0-0.79949-0.21436-1.431-0.66045-1.8655-0.44029-0.44609-1.0834-0.67783-1.8944-0.67783-0.41133 0-0.77052 0.0753-1.0834 0.21436-0.32443 0.13904-0.57355 0.32443-0.7879 0.56775-0.20277 0.24332-0.35919 0.5214-0.46347 0.83425-0.0753 0.32443-0.13905 0.65465-0.13905 0.99646 0 0.76473 0.21436 1.3614 0.67204 1.796 0.4345 0.4403 1.0544 0.66624 1.8597 0.66624 0.42291 0 0.7879-0.0579 1.1007-0.19118 0.30126-0.14483 0.57934-0.32443 0.77052-0.56196 0.20857-0.23173 0.36499-0.49823 0.47506-0.81107 0.10428-0.30705 0.15063-0.62569 0.15063-0.9675m0.99646 11.934c0-0.50402-0.20856-0.89218-0.60251-1.1645-0.40554-0.2665-0.95591-0.41133-1.6743-0.42871l-2.9778-0.0869c-0.29547 0.21435-0.5272 0.41133-0.70101 0.6141-0.168 0.19697-0.30125 0.37657-0.41712 0.56196-0.11587 0.1738-0.1796 0.3476-0.20856 0.51561-0.0348 0.16221-0.0464 0.33602-0.0464 0.5214 0 0.55617 0.27808 0.97909 0.84584 1.2746 0.55616 0.28967 1.3441 0.42292 2.3811 0.42292 0.63727 0 1.1703-0.0579 1.6106-0.1796 0.42872-0.12166 0.78211-0.30125 1.0544-0.51561 0.2665-0.21435 0.45189-0.44609 0.55617-0.71838 0.12745-0.2607 0.17959-0.5272 0.17959-0.81687m4.4146-15.463c0 0.533-0.0579 0.93274-0.18539 1.1876-0.12745 0.25491-0.27229 0.38236-0.4403 0.38236h-1.7786c0.2607 0.2665 0.43451 0.57355 0.53299 0.90957 0.0985 0.3476 0.17381 0.701 0.17381 1.0718 0 0.86901-0.15063 1.6395-0.4461 2.3174-0.28967 0.67783-0.70679 1.2514-1.2456 1.709-0.53299 0.46347-1.1934 0.81687-1.9755 1.0544-0.74156 0.23753-1.5874 0.35919-2.5375 0.35919-0.47506 0-0.93274-0.0637-1.3672-0.1738-0.43451-0.11587-0.77052-0.25491-1.0023-0.41133-0.13904 0.14483-0.2607 0.31284-0.37078 0.5214-0.0869 0.20277-0.15062 0.42292-0.15062 0.66624 0 0.33023 0.13904 0.58514 0.42291 0.7937 0.28388 0.21435 0.68942 0.31864 1.1934 0.3534l3.6383 0.12745c0.84004 0.029 1.6106 0.14484 2.271 0.36498 0.66624 0.20277 1.2108 0.49244 1.6685 0.87481 0.44609 0.35919 0.79949 0.81687 1.0428 1.3383 0.23753 0.5272 0.3592 1.1239 0.3592 1.7902 0 0.74155-0.16801 1.4368-0.49244 2.0914-0.32443 0.64886-0.79949 1.2108-1.4542 1.6917-0.64306 0.48664-1.4599 0.86321-2.4332 1.1413-0.97908 0.28967-2.1262 0.42291-3.4239 0.42291-1.2688 0-2.3579-0.10428-3.2559-0.29546-0.89797-0.20856-1.6395-0.48664-2.2073-0.84004-0.56775-0.35919-0.99646-0.7879-1.2456-1.2861-0.26649-0.49823-0.40554-1.037-0.40554-1.6279 0-0.37657 0.0521-0.72417 0.13905-1.0602 0.0985-0.34181 0.24911-0.66045 0.42871-0.9617 0.19118-0.30126 0.40553-0.59672 0.68362-0.87481 0.25491-0.27808 0.55616-0.55037 0.91535-0.81107-0.48664-0.25491-0.84583-0.60251-1.1181-1.0428-0.2607-0.4403-0.39395-0.92695-0.39395-1.4541 0-0.65466 0.15063-1.2572 0.45768-1.8018 0.28967-0.53879 0.68362-1.0254 1.1645-1.4599-0.39395-0.39395-0.701-0.86321-0.93274-1.402-0.23173-0.55037-0.3534-1.234-0.3534-2.0451 0-0.8748 0.15063-1.6511 0.45189-2.3463 0.31864-0.68362 0.73577-1.263 1.2861-1.7322 0.55617-0.46926 1.205-0.84004 1.9524-1.0892 0.78211-0.24912 1.6164-0.38237 2.5259-0.38237 0.46347 0 0.90956 0.029 1.3325 0.0869 0.4403 0.0579 0.84005 0.13325 1.205 0.23753h4.7448c0.1796 0 0.33602 0.11587 0.4461 0.36499 0.12166 0.25491 0.17959 0.65465 0.17959 1.2398m-17.522 13.898c0 0.12166-0.029 0.20856-0.0927 0.29546-0.0753 0.0811-0.18539 0.15063-0.33023 0.20277-0.17959 0.0579-0.38236 0.10428-0.66044 0.13325-0.27229 0.0232-0.60831 0.0405-0.99647 0.0405-0.42292 0-0.77052-0.0174-1.0544-0.0405-0.2607-0.029-0.47505-0.0753-0.63148-0.13325-0.15062-0.0521-0.27808-0.12166-0.33022-0.20277-0.0811-0.0869-0.11587-0.1738-0.11587-0.29546v-8.5163c0-0.73576-0.0463-1.2977-0.13904-1.7206-0.11587-0.40554-0.2607-0.76473-0.47506-1.0602-0.19118-0.28967-0.46926-0.5214-0.77631-0.68362-0.31285-0.16221-0.67783-0.24332-1.1123-0.24332-0.5272 0-1.0718 0.19118-1.6164 0.59092-0.53879 0.37657-1.1297 0.95591-1.7148 1.7033v9.9299c0 0.12166-0.029 0.20856-0.0927 0.29546-0.0579 0.0811-0.1738 0.15063-0.3476 0.20277-0.15643 0.0579-0.37657 0.10428-0.63728 0.13325-0.27229 0.0232-0.61989 0.0405-1.0196 0.0405-0.42872 0-0.75894-0.0174-1.0312-0.0405-0.25491-0.029-0.48085-0.0753-0.63148-0.13325-0.17959-0.0521-0.28967-0.12166-0.3476-0.20277-0.0637-0.0869-0.10428-0.1738-0.10428-0.29546v-14.941c0-0.11008 0.029-0.20277 0.0927-0.28388 0.0463-0.0927 0.13904-0.16222 0.29546-0.21436 0.13905-0.0521 0.32443-0.0927 0.54458-0.12745 0.24912-0.0232 0.53299-0.0405 0.87481-0.0405 0.35339 0 0.64886 0.0174 0.88638 0.0405 0.23174 0.0348 0.41713 0.0753 0.53879 0.12745 0.13325 0.0521 0.22594 0.12166 0.28388 0.21436 0.0637 0.0811 0.0811 0.1738 0.0811 0.28388v1.7264c0.83425-0.89798 1.6743-1.5526 2.5201-2.0103 0.85163-0.4403 1.738-0.66045 2.6592-0.66045 1.0138 0 1.8713 0.15642 2.5723 0.49823 0.701 0.33023 1.263 0.78791 1.6975 1.3672 0.42292 0.57354 0.72997 1.2398 0.93274 2.0161 0.18539 0.76472 0.27808 1.6975 0.27808 2.7808zm-21.739-9.1119c0.029-1.1818-0.19698-2.1146-0.71259-2.7924-0.49823-0.66624-1.2861-1.008-2.3405-1.008-0.54458 0-1.008 0.0985-1.4078 0.30126-0.38238 0.20277-0.72419 0.48085-0.9675 0.81107-0.27809 0.34182-0.47506 0.74735-0.60252 1.2108-0.15643 0.46348-0.23173 0.96171-0.26071 1.4773zm4.0901 1.205c0 0.51561-0.11008 0.89218-0.3534 1.1413-0.22015 0.24912-0.54458 0.37078-0.93274 0.37078h-9.0956c0 0.63148 0.0811 1.2166 0.23174 1.7322 0.14483 0.5214 0.38816 0.95591 0.72417 1.3267 0.33023 0.35919 0.74735 0.63148 1.263 0.82267 0.51562 0.19118 1.1587 0.28387 1.8655 0.28387 0.74734 0 1.3904-0.0463 1.9466-0.15642 0.56196-0.10428 1.0428-0.22015 1.4484-0.3476 0.39974-0.13904 0.74155-0.24912 1.0022-0.3534 0.27229-0.10428 0.49244-0.16801 0.64886-0.16801 0.11009 0 0.20277 0.029 0.2665 0.0637 0.0695 0.0405 0.12166 0.11007 0.16221 0.20856 0.0406 0.0985 0.0811 0.24912 0.0927 0.42871 0.0174 0.18539 0.0174 0.41713 0.0174 0.701 0 0.23753 0 0.45189-6e-3 0.62569-0.0116 0.16801-0.0232 0.31864-0.0637 0.4403 0 0.12745-0.0521 0.23173-0.0811 0.31284-0.0521 0.0811-0.11007 0.16801-0.1738 0.24332-0.0753 0.0695-0.27808 0.1796-0.59672 0.31864-0.34181 0.13325-0.74156 0.2665-1.2514 0.39395-0.49244 0.12166-1.066 0.23174-1.7091 0.33022-0.64886 0.0927-1.3441 0.14484-2.0856 0.14484-1.3267 0-2.4854-0.16801-3.4876-0.49823-0.98488-0.34181-1.8191-0.85163-2.5143-1.5295-0.64886-0.67783-1.1587-1.5352-1.4831-2.5781-0.33602-1.0486-0.49244-2.2594-0.49244-3.6498 0-1.3267 0.16801-2.5317 0.50982-3.5977 0.35339-1.066 0.84583-1.9698 1.5121-2.7113 0.65466-0.73577 1.4657-1.3035 2.3985-1.7033 0.95012-0.38816 1.9987-0.57355 3.1922-0.57355 1.2456 0 2.3232 0.16801 3.198 0.53879 0.89219 0.37077 1.6164 0.88059 2.1957 1.541 0.56196 0.65465 0.97908 1.4252 1.234 2.3116 0.28388 0.90377 0.41713 1.8713 0.41713 2.9141zm-20.922-6.2881c0-0.76473-0.14482-1.3846-0.41711-1.8886-0.27809-0.48085-0.58514-0.85163-0.98488-1.0892-0.38816-0.23174-0.7937-0.37658-1.2282-0.4403-0.42292-0.0579-0.86901-0.0869-1.3267-0.0869h-1.8771v7.3518h1.964c0.7068 0 1.2977-0.0985 1.7728-0.28387 0.48085-0.19698 0.86322-0.44609 1.1645-0.79949 0.29547-0.34181 0.533-0.74735 0.68362-1.2224 0.15063-0.46926 0.24912-0.97908 0.24912-1.541m4.5942-0.32443c0 1.2166-0.17959 2.2942-0.58513 3.2327-0.37078 0.93853-0.92115 1.7264-1.6511 2.3753-0.72417 0.63148-1.6106 1.1297-2.6708 1.4541-1.0486 0.33601-2.2942 0.51561-3.7136 0.51561h-1.8075v6.9115c0 0.10428-0.0348 0.20856-0.10428 0.29546-0.0637 0.0869-0.20277 0.16222-0.36498 0.22015-0.16801 0.0637-0.39395 0.10428-0.67204 0.13325-0.27229 0.0348-0.63727 0.0521-1.0718 0.0521-0.41714 0-0.77053-0.0174-1.0718-0.0521-0.27809-0.029-0.49244-0.0695-0.66045-0.13325-0.1738-0.0579-0.29546-0.13325-0.35919-0.22015-0.0695-0.0869-0.0927-0.19118-0.0927-0.29546v-19.489c0-0.53299 0.13324-0.93274 0.40553-1.1934 0.26649-0.2607 0.63728-0.38816 1.0776-0.38816h5.0982c0.51561 0 1.0138 0.0174 1.4773 0.0579 0.45188 0.0406 1.0138 0.12166 1.6569 0.25491 0.65465 0.12166 1.3035 0.37077 1.964 0.70679 0.66624 0.3476 1.2282 0.7879 1.7033 1.3093 0.46926 0.53878 0.82845 1.1587 1.0776 1.8713 0.23173 0.7068 0.36498 1.5005 0.36498 2.3811m-26.84 14.519c0 0.12166-0.029 0.20856-0.0811 0.29546-0.0753 0.0811-0.18539 0.15063-0.3476 0.20277-0.14484 0.0579-0.37078 0.10428-0.65465 0.13325-0.24912 0.0232-0.58514 0.0405-0.98488 0.0405-0.41713 0-0.76473-0.0174-1.037-0.0405-0.28388-0.029-0.50982-0.0753-0.64307-0.13325-0.15642-0.0521-0.26648-0.12166-0.34181-0.20277-0.0695-0.0869-0.0927-0.1738-0.0927-0.29546v-8.5163c0-0.73576-0.0463-1.2977-0.16222-1.7206-0.11586-0.40554-0.25491-0.76473-0.47505-1.0602-0.18539-0.28967-0.4403-0.5214-0.76473-0.68362-0.31864-0.16221-0.69521-0.24332-1.1065-0.24332-0.53879 0-1.0892 0.19118-1.6337 0.59092-0.53878 0.37657-1.1181 0.95591-1.7033 1.7033v9.9299c0 0.12166-0.0232 0.20856-0.10428 0.29546-0.0579 0.0811-0.1738 0.15063-0.3476 0.20277-0.15063 0.0579-0.35919 0.10428-0.64307 0.13325-0.25491 0.0232-0.60251 0.0405-1.0022 0.0405-0.42292 0-0.75894-0.0174-1.037-0.0405-0.2665-0.029-0.46347-0.0753-0.63728-0.13325-0.168-0.0521-0.27229-0.12166-0.3476-0.20277-0.0637-0.0869-0.0927-0.1738-0.0927-0.29546v-14.941c0-0.11008 0.0174-0.20277 0.0753-0.28388 0.0637-0.0927 0.16801-0.16222 0.31284-0.21436 0.13325-0.0521 0.31864-0.0927 0.55038-0.12745 0.22594-0.0232 0.5272-0.0405 0.86901-0.0405 0.35339 0 0.64306 0.0174 0.8748 0.0405 0.24332 0.0348 0.41712 0.0753 0.55616 0.12745 0.12167 0.0521 0.20857 0.12166 0.26071 0.21436 0.0637 0.0811 0.0927 0.1738 0.0927 0.28388v1.7264c0.82846-0.89798 1.6685-1.5526 2.5143-2.0103 0.85163-0.4403 1.7496-0.66045 2.6881-0.66045 0.99646 0 1.8655 0.15642 2.5491 0.49823 0.7068 0.33023 1.2688 0.78791 1.6917 1.3672 0.43451 0.57354 0.74156 1.2398 0.92695 2.0161 0.19697 0.76472 0.27808 1.6975 0.27808 2.7808zm-22.512-6.3478h-1.6048c-0.68362 0-1.2688 0.0521-1.7438 0.15642-0.46347 0.0927-0.8748 0.24912-1.1703 0.45768-0.30705 0.19118-0.50982 0.4403-0.66624 0.71838-0.13325 0.27808-0.19118 0.6141-0.19118 0.98488 0 0.61989 0.18539 1.1123 0.59093 1.4715 0.38815 0.35919 0.92694 0.53299 1.6453 0.53299 0.59672 0 1.1355-0.15063 1.6279-0.45768 0.49244-0.29546 1.0023-0.73576 1.5121-1.3093zm4.1423 6.4017c0 0.15642-0.0579 0.27808-0.1796 0.36498-0.10428 0.0985-0.28967 0.15643-0.5214 0.18539-0.24912 0.0463-0.60252 0.0695-1.066 0.0695-0.50982 0-0.88059-0.0232-1.095-0.0695-0.23174-0.029-0.39395-0.0869-0.47506-0.18539-0.10428-0.0869-0.15063-0.20856-0.15063-0.36498v-1.1992c-0.61989 0.66624-1.3151 1.1761-2.103 1.5468-0.7879 0.37078-1.6511 0.55617-2.607 0.55617-0.7879 0-1.5294-0.0985-2.1957-0.30705-0.66045-0.20856-1.234-0.51561-1.7148-0.93274-0.48664-0.39974-0.8748-0.90377-1.1355-1.5063-0.26649-0.6083-0.39975-1.3035-0.39975-2.1088 0-0.87481 0.16801-1.6337 0.51562-2.2768 0.33023-0.63727 0.84004-1.1645 1.5179-1.5874 0.67783-0.41133 1.5121-0.72997 2.5086-0.93273 1.008-0.18539 2.1841-0.30705 3.505-0.30705h1.4542v-0.90377c0-0.46348-0.0463-0.86901-0.13904-1.2224-0.0927-0.3534-0.24333-0.64307-0.46928-0.8806-0.22594-0.23173-0.50401-0.40553-0.8748-0.51561-0.3534-0.11007-0.81107-0.1738-1.3556-0.1738-0.67783 0-1.3267 0.0811-1.8713 0.23753-0.55037 0.16221-1.0312 0.33022-1.4599 0.51561-0.4345 0.19118-0.78791 0.37078-1.066 0.5272-0.27808 0.15642-0.50982 0.23174-0.69521 0.23174-0.12166 0-0.23173-0.0406-0.33022-0.11008-0.0869-0.0927-0.16223-0.19697-0.24333-0.34181-0.0521-0.14483-0.10428-0.32443-0.12746-0.53299-0.0405-0.21436-0.0579-0.45189-0.0579-0.7068 0-0.3476 0.0348-0.61989 0.0811-0.82266 0.0637-0.20277 0.168-0.37657 0.34181-0.53878 0.13324-0.16222 0.41133-0.34181 0.79948-0.54458 0.39975-0.19118 0.84584-0.37657 1.3788-0.53879 0.5272-0.16801 1.0892-0.30125 1.7264-0.41133 0.60831-0.0985 1.2456-0.15063 1.8944-0.15063 1.1761 0 2.1725 0.11008 3.0068 0.33602 0.82266 0.23174 1.5121 0.57934 2.0566 1.0544 0.53879 0.47506 0.93853 1.0834 1.1761 1.8365 0.23753 0.74156 0.37078 1.6337 0.37078 2.6592zm-21.075-10.037c-0.60251-0.75314-1.1818-1.3383-1.7322-1.7438-0.55038-0.39975-1.1297-0.60251-1.7322-0.60251-0.55037 0-1.0138 0.13904-1.4078 0.41133-0.39975 0.27808-0.71839 0.64306-0.95011 1.095-0.25491 0.46926-0.43452 0.97329-0.55617 1.541-0.11007 0.56196-0.15642 1.1413-0.15642 1.7264 0 0.62569 0.0464 1.2398 0.14484 1.8365 0.10428 0.58513 0.25491 1.1181 0.49823 1.57 0.22015 0.46926 0.5272 0.84004 0.90377 1.1181 0.38236 0.27809 0.86321 0.41133 1.4426 0.41133 0.28967 0 0.57355-0.0348 0.84004-0.11586 0.27809-0.0869 0.55617-0.22015 0.84005-0.41133 0.28387-0.19119 0.57934-0.4403 0.88639-0.75315 0.28967-0.30125 0.61989-0.67203 0.97908-1.1297zm4.1886 9.982c0 0.12166-0.0348 0.22594-0.0927 0.31284-0.0521 0.0869-0.13904 0.15642-0.27808 0.20277-0.13904 0.0579-0.31864 0.10428-0.55617 0.12166-0.23173 0.029-0.48664 0.0348-0.83425 0.0348-0.37077 0-0.64306-6e-3 -0.86321-0.0348-0.23753-0.0174-0.41133-0.0637-0.54458-0.12166-0.14484-0.0463-0.23753-0.11587-0.30126-0.20277-0.0637-0.0869-0.11006-0.19118-0.11006-0.31284v-1.6569c-0.75315 0.83425-1.5642 1.4657-2.4043 1.9234-0.85163 0.45768-1.7786 0.69521-2.8098 0.69521-1.1239 0-2.0972-0.22594-2.8851-0.66624-0.78211-0.4403-1.4252-1.037-1.9292-1.7844-0.47506-0.74735-0.84584-1.628-1.066-2.6186-0.23174-1.0023-0.33602-2.0566-0.33602-3.1574 0-1.3325 0.13904-2.5317 0.41712-3.5919 0.28967-1.0602 0.701-1.9524 1.2572-2.7055 0.53879-0.75314 1.2108-1.3209 2.0509-1.7206 0.79949-0.40553 1.7322-0.60251 2.7982-0.60251 0.83425 0 1.5932 0.16801 2.271 0.50403 0.69521 0.34181 1.3614 0.84004 2.0277 1.4947v-8.0876c0-0.10428 0.0232-0.20856 0.10428-0.30125 0.0406-0.0869 0.16222-0.15642 0.31864-0.22015 0.1738-0.0637 0.37078-0.11008 0.64886-0.14484 0.2607-0.029 0.6141-0.0405 1.0196-0.0405 0.41712 0 0.75893 0.0116 1.037 0.0405 0.25491 0.0348 0.45768 0.0811 0.62569 0.14484 0.15063 0.0637 0.2665 0.13325 0.33022 0.22015 0.0695 0.0927 0.10428 0.19697 0.10428 0.30125zm-22.423-6.3472h-1.6106c-0.68362 0-1.2514 0.0521-1.7322 0.15642-0.49244 0.0927-0.88059 0.24912-1.1761 0.45768-0.30705 0.19118-0.5214 0.4403-0.66044 0.71838-0.13905 0.27808-0.21436 0.6141-0.21436 0.98488 0 0.61989 0.20856 1.1123 0.60251 1.4715s0.93853 0.53299 1.6453 0.53299c0.59092 0 1.1471-0.15063 1.6337-0.45768 0.49824-0.29546 0.99647-0.73576 1.5121-1.3093zm4.1249 6.4017c0 0.15642-0.0406 0.27808-0.16222 0.36498-0.12166 0.0985-0.28387 0.15643-0.5272 0.18539-0.23753 0.0463-0.59092 0.0695-1.0544 0.0695-0.50982 0-0.8806-0.0232-1.1123-0.0695-0.21435-0.029-0.37657-0.0869-0.47505-0.18539-0.0927-0.0869-0.14484-0.20856-0.14484-0.36498v-1.1992c-0.6141 0.66624-1.3151 1.1761-2.0972 1.5468-0.7879 0.37078-1.6627 0.55617-2.6186 0.55617-0.79949 0-1.5121-0.0985-2.1899-0.30705-0.66624-0.20856-1.234-0.51561-1.709-0.93274-0.49823-0.39974-0.86901-0.90377-1.1355-1.5063-0.27229-0.6083-0.41133-1.3035-0.41133-2.1088 0-0.87481 0.17959-1.6337 0.50981-2.2768 0.34182-0.63727 0.85743-1.1645 1.5352-1.5874 0.67204-0.41133 1.5005-0.72997 2.5143-0.93273 1.008-0.18539 2.1725-0.30705 3.505-0.30705h1.4484v-0.90377c0-0.46348-0.0579-0.86901-0.13904-1.2224-0.10428-0.3534-0.25491-0.64307-0.47506-0.8806-0.22594-0.23173-0.50403-0.40553-0.85742-0.51561-0.37078-0.11007-0.82846-0.1738-1.3614-0.1738-0.68941 0-1.3267 0.0811-1.8828 0.23753-0.53879 0.16221-1.0312 0.33022-1.4657 0.51561-0.41713 0.19118-0.77052 0.37078-1.0544 0.5272-0.29546 0.15642-0.51561 0.23174-0.68941 0.23174-0.13905 0-0.23174-0.0406-0.33602-0.11008-0.0927-0.0927-0.1738-0.19697-0.24332-0.34181-0.0637-0.14483-0.0985-0.32443-0.12746-0.53299-0.0405-0.21436-0.0579-0.45189-0.0579-0.7068 0-0.3476 0.029-0.61989 0.0869-0.82266 0.0464-0.20277 0.16221-0.37657 0.32443-0.53878 0.14483-0.16222 0.4345-0.34181 0.81107-0.54458 0.39396-0.19118 0.85163-0.37657 1.373-0.53879 0.53299-0.16801 1.1007-0.30125 1.7206-0.41133 0.61989-0.0985 1.2514-0.15063 1.9118-0.15063 1.1703 0 2.1783 0.11008 3.001 0.33602 0.83424 0.23174 1.5063 0.57934 2.0624 1.0544 0.5272 0.47506 0.92115 1.0834 1.1529 1.8365 0.2665 0.74156 0.37078 1.6337 0.37078 2.6592zm-20.503-5.8276c0-0.50403-0.0695-0.95591-0.24332-1.3441-0.15642-0.40554-0.41713-0.74155-0.73576-1.0022-0.31864-0.26071-0.73576-0.48086-1.2398-0.6141-0.49823-0.15063-1.1529-0.22015-1.9466-0.22015h-2.6186v6.1584h3.1748c0.6141 0 1.1413-0.0637 1.5584-0.18538 0.40554-0.13905 0.77631-0.33023 1.0834-0.57934 0.30705-0.24912 0.55038-0.55617 0.72418-0.92695 0.16801-0.38236 0.24332-0.80528 0.24332-1.2861m-1.1065-9.2868c0-0.42871-0.0637-0.81687-0.20856-1.1645-0.13325-0.34761-0.33022-0.63728-0.59672-0.86322s-0.61989-0.39974-1.0196-0.5214c-0.39974-0.13325-0.93853-0.19698-1.6222-0.19698h-2.2304v5.637h2.4622c0.63149 0 1.1297-0.0869 1.5294-0.23173 0.37079-0.15063 0.67783-0.3534 0.94433-0.6141 0.24332-0.2665 0.42871-0.57934 0.55037-0.93274 0.13904-0.34181 0.19118-0.71838 0.19118-1.1123m5.6891 9.1304c0 0.76473-0.11008 1.4773-0.31864 2.0972-0.22015 0.62568-0.49823 1.1818-0.88639 1.6569-0.36498 0.48085-0.81687 0.89797-1.3325 1.2398s-1.0892 0.63148-1.7033 0.84584c-0.64307 0.23174-1.3093 0.39974-2.0103 0.50403-0.70679 0.10428-1.4947 0.16221-2.3637 0.16221h-5.7644c-0.37078 0-0.67783-0.11587-0.93274-0.33022-0.23753-0.22015-0.36498-0.57934-0.36498-1.066v-18.892c0-0.48664 0.12745-0.84004 0.36498-1.0544 0.25491-0.22595 0.56196-0.33602 0.93274-0.33602h5.4458c1.3267 0 2.4506 0.11007 3.3718 0.33602 0.90956 0.22014 1.6975 0.56775 2.3232 1.0196 0.63148 0.44609 1.1123 1.0196 1.4484 1.709 0.33601 0.68942 0.49243 1.5121 0.49243 2.4448 0 0.5272-0.0579 1.0254-0.19697 1.4831-0.12746 0.46347-0.33022 0.88638-0.57355 1.2688-0.27808 0.38236-0.58513 0.71259-0.95011 0.99646-0.37078 0.30126-0.80529 0.53299-1.2861 0.7068 0.60831 0.11586 1.1703 0.30705 1.7033 0.58513 0.52141 0.28388 0.9675 0.63727 1.3499 1.0834 0.38816 0.43451 0.68942 0.95591 0.90956 1.5468 0.22015 0.59672 0.34182 1.2572 0.34182 1.9929" fill="#1a304f"/>
</svg>
