<?xml version="1.0" encoding="UTF-8" standalone="no"?>
<!-- Created with Inkscape (http://www.inkscape.org/) -->

<svg
   width="150mm"
   height="100mm"
   viewBox="0 0 566.92915 377.95276"
   version="1.1"
   id="svg5"
   sodipodi:docname="Flag_of_the_Ministry_of_Industry_of_the_Republic_of_Indonesia.svg"
   inkscape:version="1.1.1 (3bf5ae0d25, 2021-09-20)"
   xmlns:inkscape="http://www.inkscape.org/namespaces/inkscape"
   xmlns:sodipodi="http://sodipodi.sourceforge.net/DTD/sodipodi-0.dtd"
   xmlns:xlink="http://www.w3.org/1999/xlink"
   xmlns="http://www.w3.org/2000/svg"
   xmlns:svg="http://www.w3.org/2000/svg">
  <sodipodi:namedview
     id="namedview7"
     pagecolor="#ffffff"
     bordercolor="#666666"
     borderopacity="1.0"
     inkscape:pageshadow="2"
     inkscape:pageopacity="0.0"
     inkscape:pagecheckerboard="0"
     inkscape:document-units="mm"
     showgrid="false"
     inkscape:zoom="0.70710678"
     inkscape:cx="648.41692"
     inkscape:cy="262.33662"
     inkscape:window-width="1920"
     inkscape:window-height="1017"
     inkscape:window-x="-8"
     inkscape:window-y="-8"
     inkscape:window-maximized="1"
     inkscape:current-layer="layer1"
     showguides="false" />
  <defs
     id="defs2">
    <path
       id="B"
       d="M484.8 510.8c5.2 4.3 13.6 11.5 14.4 12.6.5.7-.5 4.6-1 6.7-.4 1.7-.8 3.1-.9 4.1-.2 2.7 2 7.7 2.2 8.2-.1-.3-.1-.7.2-1s.6-.3 1-.2c-.1 0-10.2-4.7-14.8-10.8-3.4-4.6-4.1-13.2-2.3-17.3.4-.9 1-2 2-2.1-.4 0-.6 0-.8-.2zm-.4 20.6c4.8 6.5 15 11.2 15.4 11.4.3.1.7.1 1-.2s.3-.6.2-1c-.6-1.4-2.2-5.4-2.1-7.4.1-.9.4-2.3.8-3.9 1-4 1.6-6.7.8-8-1.1-1.7-13.3-11.8-14.7-13-.2-.2-.4-.2-.7-.2-1 .1-2.4.8-3.3 3.1-1.9 4.8-1.2 14.1 2.6 19.2z" />
    <path
       id="C"
       d="M203.4 464.9s-1.8 1.8-3.1 5.6-.6 10-.4 11.1c.7 0 2.1 1.7 6.9 0s8.3-4.8 10-8c-1.1-1.9-2.2-4.2-2.3-6.4s.7-6.1.7-6.1-4.5 2.5-7 3.3c-2.6.7-4.8.5-4.8.5z" />
    <path
       id="D"
       d="M392.1 464.9s1.8 1.8 3.1 5.6c1.4 3.8.6 10 .4 11.1-.7 0-2.1 1.7-6.9 0s-8.3-4.8-10-8c1.1-1.9 2.2-4.2 2.3-6.4s-.7-6.1-.7-6.1 4.5 2.5 7 3.3c2.6.7 4.8.5 4.8.5z" />
    <path
       id="E"
       d="M197.9 233.8v108.8 23c0 39.3 30.8 93.7 99.4 112.4h.3.3c68.6-18.8 99.5-73.1 99.5-112.4v-23-108.8h-99.7z" />
    <path
       id="F"
       d="M316.6 206.1s1.2 12.6.5 16.8c-.7 4.1-5.5 9.7-5.5 9.7s-4.8-5.6-5.5-9.7.5-16.8.5-16.8z" />
    <path
       id="G"
       d="M240.3 231.8c.7.1 1.3-.2 1.4-.7l1.3-5.3c.1-.6-.4-1.2-1.1-1.3-.7-.2-1.5.1-1.6.7l-1.3 5.3c-.1.6.4 1.2 1.1 1.3h.2z" />
    <path
       id="H"
       d="M242.3 223.8c.7.1 1.3-.2 1.4-.7l1.3-5.3c.1-.6-.4-1.2-1.1-1.3-.7-.2-1.5.1-1.6.7l-1.3 5.3c-.1.6.4 1.2 1.1 1.3.1-.1.1 0 .2 0z" />
    <path
       id="I"
       d="M360.1 231.8c-.7.1-1.3-.2-1.4-.7l-1.3-5.3c-.1-.6.4-1.2 1.1-1.3.7-.2 1.5.1 1.6.7l1.3 5.3c.1.6-.4 1.2-1.1 1.3h-.2z" />
    <path
       id="J"
       d="M358.2 223.8c-.7.1-1.3-.2-1.4-.7l-1.3-5.3c-.1-.6.4-1.2 1.1-1.3.7-.2 1.5.1 1.6.7l1.3 5.3c.1.6-.4 1.2-1.1 1.3-.1-.1-.1 0-.2 0z" />
    <path
       id="K"
       d="M317.4 180.5l-.1-.6h-10.6l-.1.6c0 .3-1.1 11.2-.5 14.9.7 3.8 5.2 8.6 5.4 8.8l.4.4.4-.4c.2-.2 4.7-5.1 5.4-8.8.8-3.7-.3-14.7-.3-14.9zm-.8 14.5c-.5 2.7-3.5 6.3-4.6 7.6-1.1-1.3-4.1-4.9-4.6-7.6-.5-2.8.1-12.1.4-13.7h3.3l.8 13.4 1.1-13.4h3.4c.1 1.6.7 11 .2 13.7z" />
    <path
       id="L"
       d="M316 158s1 9.9.4 13.1-4.7 7.6-4.7 7.6-4.1-4.4-4.7-7.6.4-13.1.4-13.1z" />
    <linearGradient
       id="A"
       gradientUnits="userSpaceOnUse">
      <stop
         offset="0"
         stop-color="#f0c001"
         id="stop4" />
      <stop
         offset=".525"
         stop-color="#f7d914"
         id="stop6" />
      <stop
         offset="1"
         stop-color="#f0c001"
         id="stop8" />
    </linearGradient>
    <linearGradient
       xlink:href="#A"
       id="B-1"
       x1="126.447"
       y1="101.473"
       x2="134.215"
       y2="103.41" />
    <linearGradient
       xlink:href="#A"
       id="C-6"
       x1="141.718"
       y1="101.473"
       x2="133.95"
       y2="103.41" />
    <path
       id="D-7"
       d="M44.138 103.37l-.372.037c.113.098.315.062.389.206.109.151.318.126.482.123.151-.004.235.13.355.195.082.094.206.062.314.076.122.014.245.03.368.017.103.052.154.204.297.149.128.001.249.047.32.151.157.046.327-.006.485.051.13.05.186.224.358.18.08-.028.233.039.27-.035-.133-.066-.321-.002-.42-.138-.058-.128-.148-.225-.301-.204-.132-.011-.319.013-.374-.144-.092-.163-.317-.009-.461-.081-.1-.071-.148-.244-.307-.183-.143-.024-.341.073-.445-.052-.051-.141-.232.011-.256-.158-.097-.075-.297.058-.358-.111-.04-.137-.25-.002-.344-.077z" />
    <path
       id="E-9"
       d="M43.99 102.053c.101.105.107.316.267.351.211.03.441.014.627.136.089.128.235.214.393.205.167-.033.226.158.377.179.133.044.287.015.409.085.05.161.236.166.379.167.11.016.196.125.316.082.114.006.278-.04.286.117.079.124.238.083.362.09h.16l-.47-.2c-.063-.09-.123-.198-.254-.148-.102.008-.215.018-.224-.113-.104-.105-.288.069-.393-.051-.013-.163-.15-.306-.326-.252-.144.014-.31.026-.385-.124-.125-.061-.289.032-.399-.067-.069-.121-.167-.233-.318-.229-.207-.009-.418-.004-.621-.055-.071-.04-.164-.087-.186-.171z" />
    <path
       id="F-1"
       d="M44.913 100.994a.93.93 0 0 0-.49.136c.19.001.42-.006.546.164.127.144.338.081.497.157.101.138.285.073.428.08.148-.011.179.141.251.231.09.098.232.121.359.109.139.09.272.247.456.212.169-.055.338.034.461.144.08.064.203.014.299.051.065.001.183.071.193.07-.064-.163-.254-.173-.385-.218-.104-.105-.207-.268-.378-.241-.152.035-.357.048-.452-.102-.055-.099-.211-.05-.303-.114-.135-.038-.136-.2-.228-.272-.168-.098-.388.03-.546-.094-.047-.149-.198-.155-.334-.146-.121.017-.242-.052-.269-.168-.031-.016-.075-.027-.104 0z" />
    <path
       id="G-8"
       d="M45.159 99.889c-.106-.006-.203.042-.301.073.131.012.297.039.35.178.127.07.304-.045.41.079s.277.101.419.093c.124.016.177.197.316.166.131-.029.21.103.291.18.113.096.272.107.413.124.123.017.263-.018.358.083.133.104.3.186.472.171.117-.017-.096-.039-.133-.077a.44.44 0 0 1-.211-.214c-.112-.134-.304-.082-.455-.086a.42.42 0 0 1-.398-.224c-.024-.128-.162-.131-.267-.121-.167.027-.189-.184-.328-.221-.115-.062-.256.035-.361-.058-.09-.123-.247-.068-.378-.091-.08.028-.145-.121-.198-.055z" />
    <path
       id="B-4"
       d="M49.95 110.16h1.78l-.876-2.761zm.09-4.365h1.656l2.485 7.016h-1.59l-.452-1.442h-2.585l-.486 1.442h-1.533zm.819 0z" />
    <style
       type="text/css"
       id="style833"><![CDATA[
    .fil1 {fill:#7AC043}
    .fil2 {fill:#00529B;fill-rule:nonzero}
    .fil3 {fill:#7D7E82;fill-rule:nonzero}
    .fil0 {fill:#EE3D37;fill-rule:nonzero}
   ]]></style>
  </defs>
  <g
     inkscape:label="Layer 1"
     inkscape:groupmode="layer"
     id="layer1">
    <rect
       style="opacity:1;fill:#ffffff;stroke-width:1.39007;fill-opacity:1"
       id="rect1206"
       width="566.92914"
       height="377.95276"
       x="0"
       y="0" />
    <rect
       style="opacity:1;fill:#ffffff"
       id="rect1182"
       x="-13.737129"
       y="-22.895214"
       height="417.34708" />
    <g
       inkscape:label="Layer 1"
       id="layer1-0"
       transform="matrix(2.783552,0,0,2.783552,18.89117,-224.3811)">
      <g
         id="g943"
         transform="matrix(1.0840224,0,0,1.0840224,0.9705183,-0.43419143)">
        <path
           class="fil0"
           d="m 48.914299,152.73866 c -0.456571,0.43071 -0.911531,0.82807 -1.400384,1.22204 -0.0054,1.52167 -0.132158,2.83199 -0.404141,4.32922 -0.265024,1.31746 -0.714104,1.84377 -1.918845,2.47137 -0.495451,0.23703 -0.986801,0.45515 -1.494736,0.66399 -0.705902,0.28572 -1.393969,0.53398 -2.119846,0.76494 -1.333865,0.364 -1.906898,0.1696 -3.041905,-0.49902 -1.22115,-0.90422 -2.230778,-1.77902 -3.292306,-2.86605 -0.649009,0.0517 -1.274832,0.0774 -1.925803,0.0794 -0.522917,-0.001 -1.029604,-0.0183 -1.545208,-0.0519 l 1.545208,-1.54521 3.78847,-3.78847 c 0.9135,-0.19458 1.801673,-0.46443 2.782231,-0.83824 0.01784,-0.007 0.203138,-0.0815 0.203138,-0.0815 1.736397,-0.7323 3.021217,-1.49652 4.488666,-2.67897 0.309612,-0.2554 0.901371,-0.79758 0.901371,-0.79758 0.0091,-0.009 0.104869,-0.10023 0.104869,-0.10023 0.257,-0.24951 0.501514,-0.50062 0.743535,-0.76475 1.28963,-1.44641 2.1243,-2.71767 2.923661,-4.48367 0,0 0.0054,-0.0118 0.0047,-0.0116 0.747814,-1.76922 1.10879,-3.21865 1.279292,-5.13251 0.03102,-0.40859 0.04673,-1.2281 0.04673,-1.2281 -1.76e-4,-0.40984 -0.04673,-1.22811 -0.04673,-1.22811 -0.170677,-1.91367 -0.531653,-3.36347 -1.279292,-5.1325 -3.58e-4,-0.001 -0.0047,-0.0116 -0.0047,-0.0116 -0.798822,-1.76528 -1.634739,-3.03816 -2.923661,-4.48385 -0.242377,-0.26413 -0.486179,-0.51489 -0.743535,-0.76458 -0.0032,0.002 -0.104869,-0.10041 -0.104869,-0.10041 -0.291064,-0.27632 -0.901371,-0.79763 -0.901371,-0.79763 -1.465843,-1.18139 -2.753517,-1.94774 -4.488487,-2.67897 -0.06759,-0.0276 -0.135367,-0.0548 -0.203139,-0.0815 -1.833953,-0.69912 -3.345097,-1.03531 -5.301754,-1.19315 -0.422329,-0.0291 -1.268769,-0.0437 -1.268769,-0.0437 -0.42322,1.8e-4 -1.268768,0.0437 -1.268768,0.0437 -1.956657,0.15784 -3.467801,0.49403 -5.301754,1.19315 -0.01784,0.007 -0.203139,0.0815 -0.203139,0.0815 -1.736397,0.7323 -3.021217,1.49652 -4.488665,2.67897 -0.105047,0.0867 -0.242732,0.20634 -0.378812,0.32673 l -3.534503,-3.5345 c 0.317817,-0.2859 0.639913,-0.56019 0.97824,-0.83307 0.0053,-1.52166 0.132156,-2.83199 0.404137,-4.32922 0.265025,-1.31746 0.714106,-1.84376 1.918847,-2.47137 0.495451,-0.23702 0.9868,-0.45514 1.494736,-0.66399 0.705902,-0.28571 1.393968,-0.53397 2.119846,-0.76493 1.333686,-0.36401 1.906897,-0.16961 3.041905,0.49901 1.221149,0.90423 2.230778,1.77903 3.292306,2.86606 0.649009,-0.0517 1.274832,-0.0774 1.925803,-0.0794 0.65097,0.002 1.276794,0.0276 1.925802,0.0794 1.062064,-1.08739 2.0708,-1.96147 3.292307,-2.86606 1.077579,-0.76814 1.75013,-0.85981 3.041906,-0.49901 0.725341,0.23078 1.4143,0.47922 2.119845,0.76493 0.507757,0.20885 0.999284,0.42697 1.494557,0.66399 1.241305,0.65543 1.541105,1.18566 1.918846,2.47119 0.271802,1.49848 0.398612,2.80613 0.404142,4.32922 0.488845,0.39415 0.943812,0.79116 1.400384,1.22204 0.0118,0.0113 0.135368,0.12967 0.135368,0.12967 0.407884,0.39611 0.788834,0.79346 1.167647,1.21775 1.525051,-0.066 2.839301,-6.7e-4 4.352051,0.20457 1.330475,0.20689 1.878892,0.6351 2.557688,1.81541 0.310859,0.58713 0.591042,1.16533 0.859283,1.77314 0.264842,0.60977 0.499905,1.20777 0.720166,1.83502 0.408956,1.33672 0.236493,1.92687 -0.409307,3.09345 -0.879615,1.2545 -1.726767,2.26859 -2.814154,3.34795 0.05725,0.64812 0.08525,1.26948 0.08757,1.9201 -0.002,0.65061 -0.03014,1.27198 -0.08757,1.92009 1.087563,1.07955 1.934364,2.09345 2.814154,3.34795 0.747275,1.11004 0.813267,1.80079 0.409307,3.09345 -0.220261,0.6269 -0.455324,1.22543 -0.720166,1.83503 -0.268241,0.60798 -0.548424,1.18566 -0.859283,1.77313 -0.708042,1.21509 -1.253964,1.49456 -2.557688,1.8154 -1.513822,0.20529 -2.825928,0.27074 -4.352051,0.20457 -0.378813,0.42429 -0.759588,0.82148 -1.167472,1.21776 -0.04491,0.0435 -0.09024,0.0865 -0.135361,0.12966 z"
           id="path838"
           style="clip-rule:evenodd;stroke-width:0.000178348;image-rendering:optimizeQuality;shape-rendering:geometricPrecision;text-rendering:geometricPrecision" />
        <path
           class="fil1"
           d="m 21.98231,157.21823 -5.617074,-5.61707 h 8.501855 c 0.187979,1.01765 1.079898,1.78847 2.151949,1.78847 1.208843,0 2.188509,-0.98002 2.188509,-2.18851 0,-1.20884 -0.979845,-2.18869 -2.188509,-2.18869 -1.032102,0 -1.89709,0.71447 -2.127872,1.67576 h -8.493651 l 5.585507,-5.58551 c 2.424642,-2.42464 6.391996,-2.42464 8.816638,0 l 6.058129,6.05813 -6.057415,6.05742 c -2.424999,2.425 -6.393067,2.425 -8.818066,0 z"
           id="path840"
           style="clip-rule:evenodd;fill-rule:evenodd;stroke-width:0.000178348;image-rendering:optimizeQuality;shape-rendering:geometricPrecision;text-rendering:geometricPrecision" />
        <path
           class="fil1"
           d="m 5.0989857,130.86641 9.8141403,-9.81415 9.81414,9.81415 c 2.648648,2.64864 2.648648,6.98268 0,9.63133 l -9.276064,9.27606 v -12.94682 c 1.368287,-0.2529 2.404668,-1.45212 2.404668,-2.89353 0,-1.62528 -1.317457,-2.94273 -2.942744,-2.94273 -1.625286,0 -2.942744,1.31745 -2.942744,2.94273 0,1.38773 0.960761,2.55092 2.253428,2.86125 v 12.82786 l -9.1248243,-9.12482 c -2.648648,-2.64865 -2.648648,-6.98287 0,-9.63133 z"
           id="path842"
           style="clip-rule:evenodd;fill-rule:evenodd;stroke-width:0.000178348;image-rendering:optimizeQuality;shape-rendering:geometricPrecision;text-rendering:geometricPrecision" />
      </g>
      <g
         id="g951"
         transform="translate(0,15.54269)">
        <path
           class="fil3"
           d="m 75.653534,157.48354 v -8.03267 h 3.083 c 0.774915,0 1.337192,0.073 1.688416,0.21687 0.351225,0.14387 0.633156,0.40015 0.844208,0.76856 0.211052,0.37027 0.315785,0.79105 0.315785,1.26605 0,0.60222 -0.160273,1.10155 -0.479496,1.49429 -0.319222,0.3909 -0.798718,0.63951 -1.435048,0.74054 0.317372,0.20576 0.579203,0.43004 0.784966,0.67521 0.206027,0.2449 0.482933,0.67891 0.832307,1.3036 l 0.886524,1.56728 h -1.750833 l -1.058698,-1.74871 c -0.376615,-0.6247 -0.633157,-1.01744 -0.771478,-1.1801 -0.138585,-0.16265 -0.28537,-0.2732 -0.440617,-0.33482 -0.155248,-0.0598 -0.400153,-0.0897 -0.737889,-0.0897 h -0.29542 v 3.35329 h -1.465463 z m 1.465463,-4.63627 h 1.082237 c 0.702449,0 1.141479,-0.0317 1.316827,-0.0973 0.174025,-0.0653 0.31076,-0.17958 0.410203,-0.34038 0.09786,-0.1608 0.148635,-0.36101 0.148635,-0.60221 0,-0.27109 -0.06585,-0.48822 -0.195977,-0.65458 -0.130122,-0.16635 -0.313933,-0.27135 -0.551962,-0.31605 -0.118221,-0.0169 -0.47447,-0.0262 -1.068748,-0.0262 h -1.14148 v 2.03673 z m 5.846777,4.63627 v -8.03267 h 5.375744 v 1.35967 h -3.912133 v 1.78045 h 3.640252 v 1.35227 h -3.640252 v 2.18616 h 4.050454 v 1.35412 h -5.51433 z m 6.756839,0 v -8.03267 h 2.34855 c 0.889698,0 1.470752,0.0412 1.740782,0.12166 0.415228,0.1198 0.764866,0.38163 1.045211,0.78549 0.280344,0.40412 0.420517,0.92567 0.420517,1.56358 0,0.49378 -0.08093,0.90901 -0.243054,1.24384 -0.162124,0.33667 -0.366299,0.60036 -0.61623,0.7929 -0.248343,0.19068 -0.501447,0.3179 -0.758253,0.37978 -0.349638,0.0767 -0.85611,0.11611 -1.519681,0.11611 h -0.953966 v 3.02984 h -1.463876 z m 1.463876,-6.673 v 2.27793 h 0.800306 c 0.577351,0 0.964016,-0.0413 1.158141,-0.12536 0.194126,-0.0841 0.3462,-0.21502 0.457544,-0.3946 0.109758,-0.17958 0.165562,-0.38719 0.165562,-0.62469 0,-0.29172 -0.07776,-0.53292 -0.233003,-0.72387 -0.153661,-0.18884 -0.351225,-0.30865 -0.587667,-0.35546 -0.175612,-0.0373 -0.526836,-0.0542 -1.053673,-0.0542 h -0.707474 z m 5.282914,-1.35967 h 1.463876 v 4.3501 c 0,0.69028 0.01851,1.1391 0.05395,1.34275 0.06242,0.32927 0.212639,0.59295 0.447494,0.79105 0.236442,0.2002 0.558838,0.29912 0.967454,0.29912 0.415493,0 0.729423,-0.0934 0.940483,-0.28246 0.21105,-0.18699 0.33773,-0.41893 0.37978,-0.69214 0.0439,-0.27479 0.064,-0.72942 0.064,-1.36522 v -4.44373 h 1.46388 v 4.21919 c 0,0.96507 -0.0389,1.64583 -0.11822,2.04413 -0.0793,0.39831 -0.22454,0.73313 -0.43718,1.00819 -0.21264,0.27294 -0.49801,0.49192 -0.85267,0.65458 -0.35625,0.16265 -0.82226,0.24305 -1.396173,0.24305 -0.692134,0 -1.217384,-0.0878 -1.57522,-0.26553 -0.358101,-0.17773 -0.639768,-0.40783 -0.847647,-0.69002 -0.207614,-0.28246 -0.344348,-0.57973 -0.410202,-0.89023 -0.09627,-0.46019 -0.143611,-1.13883 -0.143611,-2.03858 v -4.28478 z m 7.329427,0 h 2.89893 c 0.57418,0 1.00289,0.0262 1.28482,0.0804 0.28194,0.0524 0.53345,0.16265 0.75641,0.33112 0.22295,0.16821 0.40676,0.3909 0.5554,0.67151 0.14863,0.27875 0.22295,0.59295 0.22295,0.93889 0,0.37582 -0.0913,0.72202 -0.27347,1.03622 -0.18407,0.31419 -0.43215,0.54984 -0.7445,0.70694 0.44062,0.14229 0.78179,0.38534 1.01823,0.72757 0.23803,0.34409 0.35625,0.74821 0.35625,1.21183 0,0.36472 -0.0759,0.71991 -0.22956,1.06611 -0.15366,0.34408 -0.36286,0.62099 -0.62813,0.82675 -0.26501,0.20576 -0.59269,0.33298 -0.9828,0.38138 -0.24305,0.028 -0.8323,0.0468 -1.7659,0.0542 h -2.46836 v -8.03267 z m 1.46547,1.33719 v 1.85715 h 0.95899 c 0.57074,0 0.92514,-0.009 1.06372,-0.028 0.24993,-0.0317 0.4475,-0.12722 0.59111,-0.28617 0.14361,-0.15895 0.21449,-0.36841 0.21449,-0.62839 0,-0.24888 -0.0608,-0.45067 -0.18408,-0.60592 -0.12483,-0.15525 -0.30891,-0.24887 -0.55223,-0.28061 -0.14519,-0.0188 -0.56227,-0.028 -1.25097,-0.028 h -0.84077 z m 0,3.19434 v 2.14702 h 1.35412 c 0.52842,0 0.86272,-0.0148 1.00448,-0.0487 0.21766,-0.0431 0.39512,-0.15155 0.53186,-0.31975 0.13673,-0.17006 0.20603,-0.39831 0.20603,-0.68262 0,-0.2412 -0.054,-0.44511 -0.15869,-0.61332 -0.10632,-0.16821 -0.25839,-0.29172 -0.45754,-0.36841 -0.19915,-0.0767 -0.63316,-0.11399 -1.29832,-0.11399 h -1.18194 z m 5.88592,3.50114 v -7.96708 h 1.46387 v 6.61323 h 3.64025 v 1.35411 h -5.10386 z m 6.10358,0 v -8.03267 h 1.46388 v 8.03267 z m 2.87882,0 v -8.03267 h 1.46388 v 3.56646 l 2.95817,-3.56646 h 1.96876 l -2.73019,3.12901 2.87882,4.90366 h -1.89444 l -1.9923,-3.77037 -1.18856,1.34274 v 2.42763 h -1.46387 z m 10.06624,0 v -8.03267 h 1.46387 v 8.03267 z m 2.87353,0 v -8.03267 h 1.425 l 2.96822,5.36384 v -5.36384 h 1.36073 v 8.03267 h -1.47049 l -2.92273,-5.23848 v 5.23848 z m 7.29717,-8.03267 h 2.67597 c 0.60274,0 1.06213,0.0505 1.3795,0.15339 0.42555,0.13832 0.79026,0.38534 1.09229,0.74054 0.30388,0.3536 0.5353,0.78734 0.69399,1.2999 0.1571,0.5144 0.23644,1.1465 0.23644,1.90026 0,0.66013 -0.0743,1.23061 -0.22295,1.70931 -0.18064,0.58343 -0.43904,1.05658 -0.77677,1.41759 -0.25311,0.27479 -0.59587,0.48822 -1.02829,0.64162 -0.32239,0.11399 -0.75455,0.17006 -1.29672,0.17006 h -2.75373 v -8.03267 z m 1.46387,1.35967 v 5.31888 h 1.09229 c 0.40861,0 0.70403,-0.0243 0.88652,-0.0767 0.23644,-0.0653 0.43374,-0.17587 0.59084,-0.33297 0.1571,-0.1571 0.28352,-0.41708 0.38323,-0.77624 0.0979,-0.35916 0.14863,-0.85109 0.14863,-1.47181 0,-0.62099 -0.0508,-1.09599 -0.14863,-1.42897 -0.0997,-0.33297 -0.23803,-0.59295 -0.41523,-0.77809 -0.17905,-0.18698 -0.40518,-0.31234 -0.67865,-0.37767 -0.20417,-0.0524 -0.60432,-0.0767 -1.2023,-0.0767 h -0.6567 z m 5.55982,2.70638 c 0,-0.81908 0.10976,-1.50566 0.33086,-2.06106 0.16556,-0.40756 0.3901,-0.77624 0.67547,-1.10154 0.28537,-0.32346 0.59772,-0.56466 0.93704,-0.72202 0.45252,-0.21317 0.97248,-0.3179 1.56332,-0.3179 1.06875,0 1.923,0.36656 2.56462,1.10154 0.64162,0.73313 0.96243,1.75427 0.96243,3.06158 0,1.29805 -0.31922,2.31152 -0.95555,3.04465 -0.63659,0.73128 -1.48741,1.09784 -2.55114,1.09784 -1.0788,0 -1.93676,-0.36471 -2.57308,-1.09229 -0.6366,-0.72942 -0.95397,-1.73364 -0.95397,-3.01106 z m 1.50778,-0.0542 c 0,0.909 0.19068,1.59902 0.56888,2.06847 0.37979,0.46944 0.86114,0.70324 1.4451,0.70324 0.58264,0 1.06214,-0.23195 1.4369,-0.69954 0.37318,-0.46574 0.56069,-1.16317 0.56069,-2.09465 0,-0.92012 -0.18249,-1.60643 -0.54535,-2.06107 -0.36471,-0.45252 -0.84923,-0.67891 -1.45197,-0.67891 -0.60433,0 -1.0907,0.2301 -1.46044,0.68817 -0.36815,0.45807 -0.55381,1.14836 -0.55381,2.07402 z m 6.68252,4.02109 v -8.03267 h 1.425 l 2.96821,5.36384 v -5.36384 h 1.36073 v 8.03267 h -1.47075 l -2.92246,-5.23848 v 5.23848 z m 7.30219,0 v -8.03267 h 5.37574 v 1.35967 h -3.91213 v 1.78046 h 3.64025 v 1.35226 h -3.64025 v 2.18617 h 4.05045 v 1.35411 h -5.51433 z m 6.38551,-2.61276 1.425,-0.15524 c 0.0844,0.53106 0.25839,0.92011 0.52181,1.16898 0.26183,0.24676 0.61465,0.37212 1.06029,0.37212 0.47103,0 0.82728,-0.11029 1.06531,-0.33298 0.23961,-0.22057 0.35969,-0.4787 0.35969,-0.77438 0,-0.19069 -0.0505,-0.35149 -0.15181,-0.48452 -0.0997,-0.13462 -0.27532,-0.25073 -0.52684,-0.34779 -0.17059,-0.0674 -0.56228,-0.18328 -1.17163,-0.35149 -0.78497,-0.21502 -1.3356,-0.48055 -1.65113,-0.79475 -0.44564,-0.44141 -0.66859,-0.97989 -0.66859,-1.61595 0,-0.40967 0.10473,-0.79105 0.31393,-1.14836 0.20947,-0.35545 0.51176,-0.62654 0.90504,-0.81353 0.39513,-0.18513 0.8696,-0.27875 1.42685,-0.27875 0.91165,0 1.59558,0.22057 2.0563,0.66198 0.45913,0.44326 0.7006,1.03225 0.7244,1.7712 l -1.46387,0.0711 c -0.0624,-0.41337 -0.19757,-0.71065 -0.40359,-0.89022 -0.20603,-0.18144 -0.51494,-0.27109 -0.92699,-0.27109 -0.42555,0 -0.75984,0.0952 -0.99946,0.28986 -0.15525,0.12351 -0.233,0.28987 -0.233,0.49748 0,0.19069 0.0727,0.35361 0.21793,0.48823 0.18407,0.17217 0.63315,0.35148 1.34565,0.53662 0.7125,0.18698 1.23934,0.37979 1.58025,0.57788 0.34117,0.20021 0.60776,0.4713 0.80189,0.81723 0.19254,0.34594 0.28881,0.77254 0.28881,1.27927 0,0.46019 -0.11479,0.89208 -0.3462,1.29223 -0.23142,0.40201 -0.55725,0.70139 -0.97936,0.89578 -0.4221,0.19625 -0.94894,0.29357 -1.57866,0.29357 -0.91694,0 -1.62097,-0.23379 -2.1121,-0.70324 -0.4914,-0.46944 -0.78523,-1.15391 -0.87965,-2.05181 z m 7.08268,2.61276 v -8.03267 h 1.46387 v 8.03267 z m 9.39922,0 h -1.59373 l -0.63316,-1.82541 h -2.89893 l -0.59771,1.82541 h -1.55327 l 2.82461,-8.03267 h 1.54824 z m -2.69634,-3.17741 -0.99945,-2.98118 -0.97936,2.98118 z"
           id="path846"
           style="clip-rule:evenodd;stroke-width:0.000264476;image-rendering:optimizeQuality;shape-rendering:geometricPrecision;text-rendering:geometricPrecision" />
        <path
           d="m 85.637075,124.46697 h -3.096558 c 0,-0.3549 -0.533335,-1.57369 -1.599854,-3.66403 -1.137872,-2.22436 -1.942712,-3.33659 -2.414554,-3.33659 h -0.284515 c 0,1.75502 0.03562,4.08996 0.10348,7.00062 h -2.66986 c 0.08087,-2.32704 0.12292,-4.94972 0.12292,-7.8684 0,-2.80414 -0.04203,-5.19819 -0.12292,-7.17418 h 2.66986 c -0.06788,2.13381 -0.10348,4.13334 -0.10348,6.00677 h 0.206974 c 0.27788,0 0.979343,-0.94654 2.104167,-2.84363 1.092504,-1.84185 1.638737,-2.8949 1.638737,-3.16314 h 2.821792 c 0,0.25248 -0.578593,1.21087 -1.735701,2.87526 -1.19284,1.71954 -2.062172,2.81202 -2.611778,3.28144 v 0.17347 c 0.643234,0.4102 1.658196,1.92862 3.038364,4.56331 1.289692,2.44921 1.932926,3.83361 1.932926,4.1491 z m -0.966408,7.82352 c 0,1.83796 -0.559168,3.19867 -1.680768,4.07819 -1.121712,0.87553 -2.495357,1.31724 -4.12442,1.31724 -0.297337,0 -0.507499,-0.009 -0.633449,-0.0237 0,1.4475 0.03551,3.35637 0.103368,5.73068 h -2.660186 c 0.08087,-2.2245 0.122919,-4.85116 0.122919,-7.86837 0,-2.77264 -0.04203,-5.1667 -0.122919,-7.17423 h 1.648489 c 0.232622,0 0.682004,-0.0112 1.344549,-0.0354 0.662657,-0.0238 1.23476,-0.0356 1.722801,-0.0356 1.199216,0 2.210916,0.3313 3.038327,0.99385 0.827522,0.66265 1.241284,1.66834 1.241284,3.0172 z m -2.443686,0.63504 c 0,-1.64859 -0.895278,-2.47297 -2.689172,-2.47297 -0.446007,0 -0.921262,0.0552 -1.418939,0.17357 0.06777,1.45538 0.103368,3.1039 0.103368,4.94584 0.158456,0.0112 0.339482,0.0198 0.549496,0.0198 2.304543,0 3.455238,-0.88748 3.455238,-2.66618 z m 12.140333,3.80196 c 0,0.39055 -0.01933,0.90328 -0.05492,1.53432 l -6.099371,0.12622 c 0.08733,0.87164 0.39445,1.59734 0.918,2.17321 0.52366,0.57979 1.212149,0.86767 2.065394,0.86767 0.947093,0 1.952279,-0.17356 3.019021,-0.52061 l -0.18744,2.24023 c -0.872775,0.38644 -1.952348,0.57977 -3.238821,0.57977 -1.629057,0 -2.876717,-0.56013 -3.746159,-1.67625 -0.869446,-1.11614 -1.30263,-2.46109 -1.30263,-4.03083 0,-1.6407 0.413762,-3.06449 1.234761,-4.27137 0.824224,-1.20293 1.968434,-1.80631 3.432634,-1.80631 1.341387,0 2.333672,0.44165 2.983394,1.32908 0.652902,0.88351 0.976076,2.03516 0.976076,3.45492 z m -2.214063,-0.10643 c 0,-1.77091 -0.620543,-2.6583 -1.858572,-2.6583 -1.179681,0 -1.881108,0.919 -2.100906,2.75296 z m 10.168719,-4.20437 -0.54949,2.70171 c -0.46873,-0.22875 -0.94057,-0.34706 -1.42221,-0.34706 -0.927627,0 -1.538503,0.50872 -1.835842,1.52632 0,3.07239 0.01933,5.43879 0.05813,7.09529 H 96.05147 c 0.109834,-2.31903 0.16157,-4.21224 0.16157,-5.68327 0,-1.83407 -0.158419,-3.57337 -0.471954,-5.21408 l 2.414551,-0.32339 c 0.106607,0.84797 0.161609,1.34484 0.161609,1.49075 h 0.148676 c 0.58185,-1.08459 1.354292,-1.62883 2.320708,-1.62883 0.45579,0 0.96652,0.12623 1.53534,0.38256 z m 3.91104,10.97626 h -2.54695 c 0.0873,-1.59334 0.13252,-3.42341 0.13252,-5.49007 0,-2.04693 -0.10675,-3.84148 -0.32007,-5.38367 l 2.72484,-0.33514 c -0.0809,1.49471 -0.12287,3.40363 -0.12287,5.71881 0,1.9799 0.0452,3.80998 0.13252,5.49007 z m 0.43633,-14.46671 c 0,0.52458 -0.1454,0.98204 -0.43959,1.37649 -0.29408,0.39042 -0.70459,0.58764 -1.22824,0.58764 -0.43961,0 -0.78539,-0.16957 -1.0344,-0.50873 -0.25203,-0.33929 -0.37487,-0.74545 -0.37487,-1.22267 0,-0.52463 0.14541,-0.97819 0.4396,-1.36464 0.29407,-0.38651 0.70458,-0.57985 1.23476,-0.57985 0.44927,0 0.79505,0.1697 1.03742,0.50483 0.24249,0.33529 0.36532,0.7376 0.36532,1.20693 z m 10.26573,14.46671 h -2.52121 c 0.13898,-1.94834 0.21013,-3.92037 0.21013,-5.91603 0,-1.21076 -0.14878,-2.03114 -0.43959,-2.46108 -0.29407,-0.42993 -0.74021,-0.6468 -1.34141,-0.6468 -0.72084,0 -1.40274,0.29974 -2.04596,0.89917 0.0323,3.00533 0.0485,5.71493 0.0485,8.12474 h -2.54706 c 0.11302,-2.40981 0.17127,-4.3069 0.17127,-5.68327 0,-1.84193 -0.15508,-3.58123 -0.46535,-5.21408 l 2.4241,-0.32339 0.16162,1.22652 h 0.15194 c 0.86298,-0.91103 1.85864,-1.3646 2.9802,-1.3646 0.97294,0 1.75178,0.28 2.33694,0.84014 0.58174,0.55608 0.87594,1.58543 0.87594,3.08813 0,0.22485 -0.01,0.52461 -0.0259,0.89529 -0.0161,0.37466 -0.0226,0.7573 -0.0226,1.15163 0,1.03733 0.0162,2.83575 0.0486,5.38363 z m 10.7762,-0.0112 -2.24641,0.0947 c -0.042,-0.27213 -0.0646,-0.55212 -0.0646,-0.84402 H 125.258 c -0.69502,0.72971 -1.58062,1.09651 -2.6602,1.09651 -1.21207,0 -2.17532,-0.53637 -2.88955,-1.60523 -0.71121,-1.07286 -1.06992,-2.3428 -1.06992,-3.81396 0,-1.68799 0.3878,-3.15516 1.16678,-4.40934 0.77583,-1.2503 1.8554,-1.87743 3.23555,-1.87743 0.89855,0 1.57087,0.20508 2.017,0.61135 h 0.1356 c 0,-1.81428 -0.0743,-3.64425 -0.21969,-5.48619 l 2.67954,-0.0947 c -0.10019,1.79457 -0.15204,4.37795 -0.15204,7.74225 0,3.41549 0.0712,6.2749 0.21012,8.58609 z m -2.37893,-2.62268 c 0,-2.45723 -0.0451,-4.49225 -0.13897,-6.10149 -0.43633,-0.37076 -0.95662,-0.55212 -1.56434,-0.55212 -0.83391,0 -1.45131,0.37464 -1.85528,1.13189 -0.40409,0.75332 -0.60773,1.67624 -0.60773,2.77263 0,0.97028 0.19712,1.80641 0.58832,2.51235 0.39114,0.70606 0.93411,1.05699 1.62905,1.05699 0.92764,0 1.57726,-0.27212 1.94897,-0.82025 z m 12.84177,2.62268 -2.21406,0.0947 c -0.10019,-0.41807 -0.15195,-0.74935 -0.15195,-0.99383 h -0.15193 c -0.82741,0.82825 -1.79393,1.24632 -2.89607,1.24632 -1.04405,0 -1.82617,-0.33529 -2.35309,-0.99783 -0.53007,-0.66655 -0.7919,-1.99964 -0.7919,-3.99541 0,-0.23662 0.002,-0.57186 0.0126,-1.00569 0.01,-0.42985 0.0161,-0.80852 0.0161,-1.13192 0,-0.85197 -0.0613,-2.21658 -0.18102,-4.08993 l 2.64075,-0.11439 c -0.10018,1.47903 -0.14866,2.87917 -0.14866,4.20436 0,1.88924 0.11315,3.15916 0.34264,3.81385 0.23272,0.65469 0.68525,0.98206 1.3608,0.98206 0.73688,0 1.37692,-0.21683 1.91341,-0.64679 0,-4.05054 -0.0386,-6.80339 -0.11303,-8.25093 l 2.55671,-0.10255 c -0.0647,1.45538 -0.097,3.34449 -0.097,5.65968 0,1.71961 0.0873,3.49441 0.25533,5.32837 z m 8.45562,-3.14342 c 0,2.31129 -1.39964,3.46692 -4.20196,3.46692 -1.02463,0 -1.91678,-0.13421 -2.67953,-0.40232 l 0.31992,-2.27963 c 0.78874,0.34705 1.57423,0.52059 2.35961,0.52059 0.75636,0 1.28316,-0.0749 1.57408,-0.2288 0.29413,-0.15383 0.44288,-0.4141 0.44288,-0.777 0,-0.55999 -0.53005,-1.09637 -1.59356,-1.60519 -0.92764,-0.44561 -1.60312,-0.88342 -2.02663,-1.31725 -0.57853,-0.59953 -0.86945,-1.33709 -0.86945,-2.20471 0,-1.0255 0.31355,-1.84984 0.93744,-2.473 0.62376,-0.62705 1.53524,-0.93865 2.72797,-0.93865 1.11518,0 1.99428,0.12225 2.63109,0.35889 l -0.32003,2.28753 c -0.71435,-0.33914 -1.48357,-0.50875 -2.31106,-0.50875 -1.01171,0 -1.51601,0.31555 -1.51601,0.95054 0,0.32344 0.10679,0.57978 0.32328,0.77701 0.21338,0.19718 0.65287,0.44555 1.31553,0.74535 0.91474,0.41016 1.58065,0.82822 1.99756,1.26215 0.59479,0.61528 0.88887,1.40404 0.88887,2.36632 z m 7.31457,0.99396 -0.1616,2.0588 c -0.44275,0.22873 -0.99879,0.34704 -1.66773,0.34704 -1.02145,0 -1.79401,-0.3392 -2.31119,-1.01748 -0.51713,-0.67842 -0.7757,-1.9839 -0.7757,-3.91649 0,-1.16352 0.007,-2.48075 0.0195,-3.95191 -0.32332,0 -0.75965,0.0198 -1.30588,0.0671 l 0.0646,-2.27569 c 0.48491,0.0474 0.93743,0.0709 1.35434,0.0709 0.007,-0.41016 0.0324,-1.48292 0.0744,-3.22618 l 2.24631,-0.33529 c -0.0968,1.53434 -0.14215,2.72145 -0.14215,3.56147 0.53007,0 1.32206,-0.0315 2.37568,-0.0947 l -0.0743,2.29943 c -0.96,-0.0474 -1.73896,-0.0671 -2.34015,-0.0671 -0.0126,1.02149 -0.0194,2.0982 -0.0194,3.22232 0,1.37249 0.11315,2.29142 0.3426,2.75686 0.22632,0.46535 0.62707,0.69808 1.20241,0.69808 0.34589,0 0.71762,-0.0672 1.11834,-0.19722 z m 7.67023,-8.81494 -0.54948,2.70171 c -0.46872,-0.22875 -0.94057,-0.34706 -1.42221,-0.34706 -0.92762,0 -1.5385,0.50872 -1.83585,1.52632 0,3.07239 0.0193,5.43879 0.0582,7.09529 h -2.52117 c 0.10979,-2.31903 0.1616,-4.21224 0.1616,-5.68328 0,-1.83407 -0.15845,-3.57337 -0.47195,-5.21408 l 2.41456,-0.32338 c 0.10666,0.84797 0.16157,1.34484 0.16157,1.49075 h 0.14866 c 0.58189,-1.0846 1.35434,-1.62883 2.32075,-1.62883 0.4558,0 0.96653,0.12621 1.53534,0.38256 z m 3.91105,10.97626 h -2.54695 c 0.0872,-1.59334 0.13252,-3.42341 0.13252,-5.49007 0,-2.04694 -0.10679,-3.84149 -0.32002,-5.38367 l 2.72482,-0.33514 c -0.0809,1.49469 -0.12287,3.40363 -0.12287,5.71881 0,1.97989 0.0452,3.80997 0.13252,5.49007 z m 0.43633,-14.46671 c 0,0.52457 -0.1454,0.98204 -0.43959,1.37649 -0.29408,0.39042 -0.70459,0.58764 -1.22824,0.58764 -0.43961,0 -0.78539,-0.16957 -1.03438,-0.50873 -0.25209,-0.33929 -0.37489,-0.74545 -0.37489,-1.22267 0,-0.52463 0.14541,-0.9782 0.43959,-1.36465 0.29408,-0.38651 0.70458,-0.57985 1.23476,-0.57985 0.44928,0 0.79502,0.16969 1.03743,0.50483 0.24248,0.3353 0.36532,0.7376 0.36532,1.20694 z m 9.41236,14.45485 -2.23343,0.0947 c -0.10356,-0.32729 -0.15203,-0.61913 -0.15203,-0.87953 h -0.12286 c -0.6949,0.72182 -1.63221,1.08461 -2.81527,1.08461 -0.78863,0 -1.44162,-0.26814 -1.96201,-0.80061 -0.52357,-0.53638 -0.78213,-1.24628 -0.78213,-2.13371 0,-1.17137 0.40397,-2.1298 1.21531,-2.87516 0.81131,-0.74943 2.2334,-1.14388 4.26656,-1.19115 0.0126,-0.13812 0.0193,-0.27212 0.0193,-0.3944 0,-0.83216 -0.16476,-1.38039 -0.4913,-1.64463 -0.3297,-0.26825 -0.9309,-0.39842 -1.80999,-0.39842 -0.95361,0 -1.88452,0.15383 -2.79269,0.46146 l 0.20686,-2.12585 c 0.85978,-0.36279 2.07184,-0.54423 3.63628,-0.54423 1.1442,0 2.02666,0.29186 2.64728,0.87953 0.6237,0.58376 0.93405,1.60918 0.93405,3.07235 0,0.32339 -0.0126,0.91503 -0.0355,1.76695 -0.0194,0.85588 -0.0324,1.42776 -0.0324,1.71175 0,1.59333 0.10019,2.89889 0.30387,3.91637 z m -2.52762,-2.40185 c -0.0388,-1.0412 -0.0583,-1.94048 -0.0583,-2.6938 -2.15272,0 -3.22903,0.66655 -3.22903,1.99965 0,0.91499 0.47511,1.37646 1.4222,1.37646 0.74345,0 1.36397,-0.22875 1.86505,-0.68231 z m 12.9065,2.41371 h -2.52124 c 0.13897,-1.94834 0.21005,-3.92037 0.21005,-5.91603 0,-1.21076 -0.14867,-2.03114 -0.43948,-2.46109 -0.29419,-0.42993 -0.7403,-0.6468 -1.3415,-0.6468 -0.72078,0 -1.40279,0.29975 -2.04598,0.89918 0.0324,3.00533 0.0485,5.71493 0.0485,8.12474 h -2.54704 c 0.11303,-2.40981 0.17125,-4.3069 0.17125,-5.68328 0,-1.84192 -0.15515,-3.58122 -0.46544,-5.21408 l 2.42424,-0.32338 0.16158,1.22652 H 179.56 c 0.86304,-0.91104 1.85853,-1.3646 2.98013,-1.3646 0.97294,0 1.75192,0.28 2.33691,0.84013 0.58191,0.55609 0.87609,1.58544 0.87609,3.08814 0,0.22485 -0.01,0.52459 -0.026,0.89529 -0.0161,0.37465 -0.0227,0.7573 -0.0227,1.15163 0,1.03733 0.0162,2.83575 0.0486,5.38363 z m -90.732849,-25.5915 c 0,0.39052 -0.01933,0.90328 -0.05492,1.53427 l -6.099269,0.12622 c 0.08729,0.87164 0.394303,1.59736 0.917963,2.17323 0.523543,0.57974 1.21207,0.86763 2.065428,0.86763 0.947062,0 1.952235,-0.17357 3.01888,-0.52063 l -0.187441,2.24027 c -0.872787,0.38645 -1.952235,0.57976 -3.238778,0.57976 -1.628993,0 -2.876653,-0.56011 -3.746096,-1.67627 -0.869518,-1.1161 -1.302629,-2.46107 -1.302629,-4.03079 0,-1.64072 0.413764,-3.06449 1.23465,-4.27142 0.824373,-1.20288 1.968434,-1.8063 3.432778,-1.8063 1.34129,0 2.333643,0.4417 2.983367,1.32908 0.652791,0.88354 0.976075,2.03516 0.976075,3.45497 z m -2.214064,-0.10642 c 0,-1.77092 -0.620626,-2.65835 -1.858543,-2.65835 -1.179788,0 -1.881252,0.91905 -2.101049,2.75301 z m 17.952013,6.77188 H 108.25 c 0.13252,-1.94838 0.19719,-3.84546 0.19719,-5.68332 0,-1.38045 -0.14553,-2.28364 -0.43646,-2.70566 -0.28765,-0.42196 -0.75301,-0.63494 -1.38984,-0.63494 -0.5106,0 -1.05044,0.22874 -1.61938,0.68232 -0.0258,0.96229 -0.0387,1.82605 -0.0387,2.58727 0,1.28571 0.0193,3.20646 0.0581,5.75433 h -2.54061 c 0.13911,-2.11006 0.21012,-4.16486 0.21012,-6.1606 0,-1.02935 -0.11949,-1.76695 -0.35552,-2.20467 -0.23589,-0.4378 -0.72719,-0.65865 -1.47391,-0.65865 -0.68512,0 -1.257336,0.28001 -1.713019,0.84399 0.03222,3.04874 0.04847,5.77798 0.04847,8.17993 h -2.547014 c 0.11305,-2.40195 0.171342,-4.29903 0.171342,-5.68332 0,-1.80242 -0.15519,-3.54181 -0.465461,-5.21407 l 2.424115,-0.3234 0.161607,1.22658 h 0.151928 c 0.820995,-0.91104 1.745492,-1.36464 2.773342,-1.36464 1.28636,0 2.19476,0.4536 2.71831,1.36464 h 0.15194 c 0.93417,-0.91104 1.85853,-1.36464 2.77324,-1.36464 1.07307,0 1.88451,0.284 2.43063,0.84802 0.54628,0.56788 0.81785,1.59333 0.81785,3.08024 0,0.14594 -0.007,0.42595 -0.0194,0.84013 -0.0126,0.41017 -0.0194,0.69021 -0.0194,0.83613 0,1.28571 0.0126,3.20646 0.0388,5.75433 z m 10.33033,-6.66547 c 0,0.39051 -0.0195,0.90329 -0.055,1.53428 l -6.09937,0.12621 c 0.0872,0.87165 0.3944,1.59736 0.91795,2.17323 0.52368,0.57975 1.2122,0.86764 2.06544,0.86764 0.94705,0 1.95235,-0.17358 3.01898,-0.52064 l -0.18745,2.24028 c -0.87278,0.38644 -1.95222,0.57975 -3.23878,0.57975 -1.6291,0 -2.87674,-0.5601 -3.74609,-1.67626 -0.86951,-1.1161 -1.30262,-2.46108 -1.30262,-4.03079 0,-1.64072 0.41377,-3.06449 1.23465,-4.27143 0.82426,-1.20287 1.96844,-1.80629 3.43266,-1.80629 1.3414,0 2.33365,0.44169 2.9834,1.32908 0.65287,0.88352 0.97616,2.03516 0.97616,3.45495 z m -2.21419,-0.10642 c 0,-1.77091 -0.62051,-2.65834 -1.85852,-2.65834 -1.17973,0 -1.88115,0.91904 -2.10096,2.75299 z m 12.4799,6.77188 h -2.5212 c 0.13898,-1.94837 0.21013,-3.92036 0.21013,-5.91601 0,-1.21081 -0.14878,-2.03118 -0.4396,-2.4611 -0.29418,-0.42997 -0.74031,-0.6468 -1.34151,-0.6468 -0.72073,0 -1.40274,0.29975 -2.04586,0.89916 0.0322,3.00536 0.0485,5.71494 0.0485,8.12475 h -2.54705 c 0.11302,-2.40981 0.17126,-4.30693 0.17126,-5.68332 0,-1.84191 -0.15519,-3.58122 -0.46533,-5.21407 l 2.42411,-0.32339 0.1616,1.22656 h 0.15193 c 0.86304,-0.91102 1.85854,-1.36462 2.98024,-1.36462 0.97283,0 1.75179,0.28003 2.33691,0.84012 0.58173,0.55612 0.87593,1.58548 0.87593,3.08814 0,0.22484 -0.01,0.52463 -0.0259,0.89529 -0.0161,0.37469 -0.0226,0.75731 -0.0226,1.15165 0,1.03732 0.0161,2.83576 0.0485,5.38364 z m 7.71858,-2.16135 -0.16171,2.05879 c -0.44275,0.22873 -0.99868,0.34706 -1.66772,0.34706 -1.02149,0 -1.79394,-0.33917 -2.31108,-1.01749 -0.51725,-0.67842 -0.77582,-1.98385 -0.77582,-3.91648 0,-1.16353 0.007,-2.48075 0.0194,-3.95188 -0.32327,0 -0.75962,0.0198 -1.30585,0.0669 l 0.0646,-2.27564 c 0.48491,0.0472 0.93744,0.0709 1.35442,0.0709 0.007,-0.41016 0.0323,-1.48292 0.0743,-3.22622 l 2.24644,-0.33526 c -0.097,1.5343 -0.14224,2.72145 -0.14224,3.56148 0.53014,0 1.32204,-0.0315 2.37567,-0.0947 l -0.0743,2.29938 c -0.96001,-0.0472 -1.73897,-0.0669 -2.34016,-0.0669 -0.0126,1.02145 -0.0193,2.09818 -0.0193,3.22226 0,1.37251 0.11302,2.29143 0.34262,2.7569 0.22622,0.46531 0.62694,0.69806 1.2023,0.69806 0.34596,0 0.71761,-0.0669 1.11846,-0.19723 z m 9.64831,-4.50411 c 0,0.39051 -0.0194,0.90328 -0.055,1.53426 l -6.09937,0.12623 c 0.0873,0.87164 0.39441,1.59736 0.91797,2.17323 0.52364,0.57973 1.21214,0.86763 2.06542,0.86763 0.94706,0 1.95235,-0.17357 3.01897,-0.52063 l -0.18743,2.24027 c -0.87277,0.38645 -1.95223,0.57976 -3.23878,0.57976 -1.62909,0 -2.87676,-0.56011 -3.74619,-1.67627 -0.86942,-1.1161 -1.30252,-2.46107 -1.30252,-4.03079 0,-1.64073 0.41364,-3.06449 1.23465,-4.27142 0.82426,-1.20289 1.96843,-1.8063 3.43266,-1.8063 1.34139,0 2.33364,0.4417 2.98341,1.32908 0.65286,0.88353 0.97614,2.03516 0.97614,3.45496 z m -2.21418,-0.10642 c 0,-1.77091 -0.62051,-2.65836 -1.85853,-2.65836 -1.17972,0 -1.88114,0.91906 -2.10095,2.75301 z m 10.16884,-4.20443 -0.54961,2.7017 c -0.46859,-0.22872 -0.94047,-0.347 -1.42221,-0.347 -0.92763,0 -1.53846,0.50873 -1.8358,1.52633 0,3.07235 0.0193,5.43879 0.0581,7.09528 h -2.5211 c 0.10992,-2.31904 0.16162,-4.21227 0.16162,-5.68332 0,-1.83402 -0.15846,-3.57333 -0.47199,-5.21407 l 2.41456,-0.3234 c 0.10667,0.84804 0.16161,1.3449 0.16161,1.49082 h 0.14867 c 0.58184,-1.08462 1.35432,-1.62888 2.32073,-1.62888 0.45575,0 0.96652,0.12623 1.53545,0.38254 z m 3.91092,10.97631 h -2.54692 c 0.0871,-1.59332 0.13252,-3.4234 0.13252,-5.49009 0,-2.04691 -0.10667,-3.84147 -0.32002,-5.38365 l 2.7248,-0.33519 c -0.0808,1.49471 -0.12275,3.40368 -0.12275,5.71884 0,1.9799 0.0452,3.80995 0.13252,5.49009 z m 0.43636,-14.46671 c 0,0.52458 -0.14544,0.98205 -0.43963,1.37646 -0.29407,0.39046 -0.70457,0.58765 -1.22812,0.58765 -0.43969,0 -0.78549,-0.16959 -1.0345,-0.50873 -0.25205,-0.33928 -0.37488,-0.74547 -0.37488,-1.22269 0,-0.52459 0.14541,-0.97816 0.4396,-1.3646 0.29411,-0.38655 0.70461,-0.57985 1.23476,-0.57985 0.44926,0 0.79516,0.16969 1.03752,0.50482 0.24242,0.33527 0.36525,0.73759 0.36525,1.20694 z m 9.41233,14.45485 -2.2334,0.0947 c -0.10356,-0.32729 -0.15202,-0.61919 -0.15202,-0.87953 h -0.12275 c -0.69501,0.72182 -1.63232,1.08461 -2.81537,1.08461 -0.78865,0 -1.44157,-0.26814 -1.96207,-0.80061 -0.52353,-0.53638 -0.78212,-1.24633 -0.78212,-2.13372 0,-1.1714 0.40402,-2.12981 1.21533,-2.87516 0.81134,-0.74946 2.23344,-1.14387 4.26659,-1.19117 0.0126,-0.13799 0.0194,-0.27209 0.0194,-0.39442 0,-0.83211 -0.16482,-1.38034 -0.49137,-1.64459 -0.32969,-0.26824 -0.9309,-0.39841 -1.81002,-0.39841 -0.95346,0 -1.88436,0.15377 -2.79268,0.46143 l 0.20689,-2.12583 c 0.85989,-0.36278 2.07182,-0.54426 3.63627,-0.54426 1.14417,0 2.02666,0.29189 2.64729,0.87953 0.62376,0.58378 0.93405,1.60922 0.93405,3.07237 0,0.32341 -0.0126,0.91504 -0.0357,1.76693 -0.0194,0.85587 -0.0324,1.42775 -0.0324,1.71175 0,1.59336 0.10019,2.89894 0.30383,3.91641 z m -2.52759,-2.40185 c -0.0388,-1.04123 -0.0582,-1.94048 -0.0582,-2.69384 -2.15273,0 -3.22903,0.66655 -3.22903,1.99965 0,0.91504 0.47511,1.37651 1.4222,1.37651 0.74345,0 1.36396,-0.22875 1.86503,-0.68232 z m 12.90646,2.41371 h -2.52119 c 0.13897,-1.94839 0.21013,-3.92036 0.21013,-5.91602 0,-1.21081 -0.14874,-2.03117 -0.43961,-2.46111 -0.29418,-0.42995 -0.74029,-0.64679 -1.3415,-0.64679 -0.72074,0 -1.40274,0.29976 -2.04598,0.89917 0.0324,3.00535 0.0486,5.71494 0.0486,8.12475 h -2.54702 c 0.11303,-2.40981 0.17125,-4.30693 0.17125,-5.68332 0,-1.84193 -0.1552,-3.58123 -0.46536,-5.21407 l 2.42411,-0.3234 0.16161,1.22657 h 0.15193 c 0.86304,-0.91104 1.85854,-1.36463 2.98025,-1.36463 0.97282,0 1.75178,0.28004 2.3369,0.84013 0.58174,0.55612 0.87593,1.58547 0.87593,3.08813 0,0.22485 -0.01,0.52463 -0.0259,0.89529 -0.0161,0.3747 -0.0226,0.75732 -0.0226,1.15166 0,1.03731 0.0161,2.83576 0.0485,5.38364 z"
           style="fill:#09589e;fill-rule:evenodd;stroke-width:0.370654"
           id="path909" />
      </g>
    </g>
  </g>
  <style
     id="style1300"><![CDATA[.F{fill:#efc14b}.G{fill:#fae89d}.H{fill:#865a10}.I{image-rendering:optimizeQuality}.J{shape-rendering:geometricPrecision}.K{fill:#a16112}.L{fill:#f7dc15}.M{fill:#1d6e2c}.N{text-rendering:geometricPrecision}.O{fill:#207d31}.P{fill:#fff}.Q{fill:#6c808c}.R{fill:#fefefe}.S{stroke:#7b7b7b}.T{fill:#ededed}.U{stroke-miterlimit:10}.V{fill:#184a21}.W{stroke:#865a10}.X{stroke-width:2}.Y{fill:#d1a840}.Z{opacity:.998}.a{stroke-linejoin:round}.b{fill:#149140}.c{fill:#b3c5ca}.d{fill:#0f6530}.e{fill:#f8bf17}.f{stroke-width:.3}.g{fill:#dba112}.h{fill-rule:evenodd}]]></style>
  <style
     id="style2"><![CDATA[.B{stroke:#000}.C{stroke-width:.265}.D{opacity:.997}.E{fill-rule:evenodd}.F{stroke-linejoin:round}]]></style>
</svg>
